<svg id="Camada_1" data-name="Camada 1" xmlns="http://www.w3.org/2000/svg" viewBox="0 0 980 856"><path d="M10,474V462c1.84-7.56,7.25-12.31,13-16.94Q105.39,378.54,187.78,312a9.64,9.64,0,0,0,4.12-8.31c.6-57.46,1.21-114.93,2.17-172.38.45-26.49,13.79-44.83,37.6-55.71,3.85-1.76,8.21-2.42,12.33-3.59h17c3.11.5,6.24.87,9.31,1.52,23.32,5,43.65,29.34,44.61,54.09s1.42,49.63,2.1,74.44c.05,1.75.17,3.5.29,5.88,1.78-1.27,3-2.06,4.12-3,49.7-39.74,99.7-79.11,148.86-119.51,11.59-9.53,22.95-15.13,37.73-12.71,2.78.45,5.9,1.26,8,3q157,125.34,313.74,251,70.32,56.49,139.65,114.2c7.69,6.37,13.75,14.7,20.56,22.12v9c-1.37,3.56-2.51,7.22-4.14,10.65-7.73,16.21-26.46,21.44-41.56,11.64-3.63-2.35-7.22-4.79-10.64-7.43q-30-23.22-60-46.55c-1.61-1.24-3.34-2.33-5-3.49l-1.52.71q0,20.22,0,40.45-.37,195.42-.53,390.84a51.85,51.85,0,0,1-7.77,28.26c-9.25,14.95-21.34,26.46-39.45,29.55-5.7,1-11.57.94-17.36,1.37H606c-7.24-4.33-15-8-21.61-13.13-13.62-10.64-21.67-24.36-21.48-42.43.18-17.32-.69-34.65-.8-52q-.58-96.48-1-193c0-1.76,0-3.51,0-5.19H438c0,2.2,0,4,0,5.83-.1,29-.1,58-.35,87-.46,53.49-1.12,107-1.59,160.46a44.48,44.48,0,0,1-8.62,26.09,65.34,65.34,0,0,1-22.58,20.06Q398.94,924.88,393,928H198c-4.63-.34-9.36-.21-13.88-1.13-6.26-1.29-12.81-2.48-18.45-5.29-10-5-17.84-12.76-24.1-22a43.09,43.09,0,0,1-7.95-25q-.51-208.44-1.72-416.88c0-6.76,0-13.52,0-20.29l-1.69-.57q-12,9.21-24,18.41c-17.07,13.05-34.08,26.16-51.28,39a24,24,0,0,1-9.82,4.58c-16.38,2.8-30.13-6.49-34.18-22.57A14.93,14.93,0,0,0,10,474ZM192.73,866.75h185.4V562.35H621.29v304.3H806.65v-6.31q-.17-234.49-.21-469a11.41,11.41,0,0,0-4.84-10q-113-89.94-225.92-180.07c-23.84-19-47.84-37.82-71.67-56.83-2.8-2.23-4.88-2.57-7.66-.14-3.26,2.85-6.87,5.28-10.26,8Q342.29,266.57,198.41,380.78c-4,3.22-5.64,6.35-5.64,11.57q.15,233.74,0,467.48Z" transform="translate(-10 -72)"/></svg>