<svg id="Camada_1" data-name="Camada 1" xmlns="http://www.w3.org/2000/svg" viewBox="0 0 934.49 934.48"><path d="M31.84,70.17C33,67.43,34.19,64.7,35.33,62a45.4,45.4,0,0,1,69.26-19.18,100.77,100.77,0,0,1,10.74,9.84Q303.1,240.31,490.8,428.07c2.54,2.55,4.62,5.55,7.32,8.83,3.9-3.72,6.53-6.13,9.06-8.65q189-189,378-378.08c13.24-13.26,28.29-19.72,47-14.88a45.3,45.3,0,0,1,24.94,71.29,101.93,101.93,0,0,1-9.85,10.74Q759.87,304.76,572.43,492.13c-2.58,2.57-5.53,4.76-9.21,7.9,3.26,3.43,5.61,6,8.07,8.47Q760,697.21,948.75,885.85c15.07,15,21.91,31.83,14.47,52.76-5.68,16-18.39,24.07-33.39,29.55H911.58c-13.72-4.42-23.77-13.79-33.72-23.76Q692.53,758.73,506.94,573.34c-2.5-2.5-5.11-4.89-9-8.64-2.81,3.58-4.79,6.72-7.34,9.28Q305.44,759.2,120.32,944.42c-9.95,10-20,19.36-33.72,23.74H68.34c-18.3-6-30.7-18-36.5-36.5V913.4c4.45-13.69,13.8-23.76,23.77-33.72Q241.28,694.37,426.67,508.76c2.5-2.5,4.9-5.11,8.68-9.07-3.79-3-7.15-5.2-9.93-8Q240.19,306.62,55,121.49c-9.76-9.74-18.83-19.65-23.12-33.07Z" transform="translate(-31.84 -33.68)"/></svg>