<?xml version="1.0" encoding="utf-8"?>
<!-- Generator: Adobe Illustrator 25.2.1, SVG Export Plug-In . SVG Version: 6.00 Build 0)  -->
<svg version="1.1" id="Camada_1" xmlns="http://www.w3.org/2000/svg" xmlns:xlink="http://www.w3.org/1999/xlink" x="0px" y="0px"
	 viewBox="0 0 934.5 934.5" style="enable-background:new 0 0 934.5 934.5;" xml:space="preserve">
<style type="text/css">
	.st0{fill:#26456E;}
</style>
<path class="st0" d="M0,36.5c1.2-2.7,2.3-5.5,3.5-8.2C13,5.1,39.5-6,62.7,3.4c3.6,1.5,7,3.4,10.1,5.7c3.8,3,7.4,6.3,10.7,9.8
	C208.7,144.1,333.8,269.2,459,394.4c2.5,2.5,4.6,5.5,7.3,8.8c3.9-3.7,6.5-6.1,9.1-8.6c126-126,252-252,378-378.1
	c13.2-13.3,28.3-19.7,47-14.9c24.2,6.2,38.9,30.8,32.8,55.1c-1.5,5.9-4.2,11.4-7.8,16.2c-3,3.8-6.3,7.4-9.8,10.7
	c-124.9,125-249.9,249.9-374.8,374.8c-2.6,2.6-5.5,4.8-9.2,7.9c3.3,3.4,5.6,6,8.1,8.5c125.8,125.8,251.6,251.6,377.5,377.3
	c15.1,15,21.9,31.8,14.5,52.8c-5.7,16-18.4,24.1-33.4,29.5h-18.2c-13.7-4.4-23.8-13.8-33.7-23.8
	C722.5,786.9,598.8,663.3,475.1,539.7c-2.5-2.5-5.1-4.9-9-8.6c-2.8,3.6-4.8,6.7-7.3,9.3c-123.4,123.5-246.9,247-370.3,370.4
	c-9.9,10-20,19.4-33.7,23.7H36.5c-18.3-6-30.7-18-36.5-36.5v-18.3C4.4,866,13.8,856,23.8,846c123.8-123.5,247.5-247.2,371.1-370.9
	c2.5-2.5,4.9-5.1,8.7-9.1c-3.8-3-7.1-5.2-9.9-8C270.1,334.6,146.6,211.2,23.2,87.8C13.4,78.1,4.3,68.2,0,54.7L0,36.5z"/>
</svg>
