<svg id="Camada_1" data-name="Camada 1" xmlns="http://www.w3.org/2000/svg" viewBox="0 0 1000 1000"><path d="M312.69.51c0,95-.69,190,.52,285,.28,22.07-5.83,28.18-27.89,27.9-94.92-1.21-189.87-.52-284.81-.52C.51,215.24,1,117.63,0,20-.17,3.24,3.24-.17,20,0,117.57,1,215.13.51,312.69.51ZM65.48,153.94c0,30.92-11.88,71.48,3.24,90.15,16.06,19.82,58.28,5.26,89,6,29.58.68,68.34,9.67,86.33-5.22,19-15.73,5.34-55.94,5.86-85.4.54-30.91,10.15-71.42-5.39-90.17-16.41-19.79-58.37-5.24-89.12-6-29.57-.68-68.21-9.65-86.36,5.2C49.71,84.36,65.89,124.53,65.48,153.94Z" transform="translate(0)"/><path d="M999.49,312.85c-94.94,0-189.89-.69-284.81.52-22.06.28-28.17-5.83-27.89-27.9,1.21-95,.52-190,.52-285C784.87.51,882.43,1,980,0c16.79-.18,20.2,3.23,20,20C999,117.63,999.49,215.24,999.49,312.85Zm-61-155.24c-1.49-29.93,8.29-70.77-7.67-88.83-16.78-19-58.6-5.35-89.42-5.42-29.5-.06-69.69-13-85.57,5.39-15,17.45-6.18,56.51-5.75,86,.44,30.84-13.35,71.22,5.44,89.91s59.1,5.22,89.92,5.3c29.5.08,69.54,13,85.61-5.36C946.3,227.17,937,188.16,938.47,157.61Z" transform="translate(0)"/><path d="M.51,687.66c94.94,0,189.89.69,284.81-.52,22.06-.28,28.17,5.83,27.89,27.9-1.21,95-.52,190-.52,285H.51ZM64.7,843.78c1.54,30.58-15.52,71.36,5.21,89,17.5,14.93,57,5.42,86.63,4.35,30.65-1.1,71.34,14.1,89-6.61,14.92-17.49,5.41-57,4.35-86.67-1.11-30.66,14.09-71.37-6.61-89-17.48-14.93-57-5.42-86.63-4.35-30.65,1.1-71.47-14.12-88.95,6.62C53.06,774.49,64.7,814,64.7,843.78Z" transform="translate(0)"/><path d="M375.13,1000c0-62.47,0-62.47,62.34-62.47,62.53,0,62.53,0,62.53-62.42,0-5.21.07-10.41,0-15.62-.55-35,11.49-79.09-5.34-102.2-15.9-21.86-63-7.74-96-6.31-29,1.25-23.39-16.08-23.39-32.09s-5.61-33.53,23.4-31.92c46.66,2.59,93.6,1.56,140.37.27,18.82-.52,24.39,5.15,23.88,23.92-1.28,46.8.45,93.68-.85,140.47-.52,18.88,5.19,25.18,24,23.78,20.69-1.54,41.89,1.93,62.32-.86,32.77-4.48,43,7.13,39.91,39.73-1.77,18.44-5.8,25.5-24.45,23.51-12.85-1.37-26-.26-39-.26-62.33,0-62.33,0-62.33,62.47Z" transform="translate(0)"/><path d="M999.49,437.79c-9.1,0-18.44,1.3-27.27-.24-29.21-5.11-40.72,6.1-35.23,35.32,4.14,22-5.1,28.41-27.23,27.91-65-1.47-130.1-2.15-195,.24-27.52,1-28.06-11.3-28-32,.1-20.4.22-36.85,27.83-31.31,29,5.83,41-5.89,35.11-35.06-5.54-27.51,10.7-27.94,31.23-27.9s36.36.17,31.42,27.87c-4.25,23.82.29,36.53,31,36.52s34.93-12.55,31.16-36.51c-3.49-22.15,5.33-29.09,27.44-27.83,32.41,1.86,65,.48,97.51.48Z" transform="translate(0)"/><path d="M.51,375.32c62.44,0,62.44,0,62.44,61.43,0,7.75,1,15.64-.18,23.21-4.49,29.53,2.47,47.5,37.43,40.36,30.41-6.22,24.44,15.53,25.37,32.85,1,18.31,1.16,34.2-24.92,29.65-28.08-4.89-44.11,3.57-37.78,35.8,4.44,22.56-6.27,29.51-27.56,26.83-11.43-1.45-23.19-.26-34.8-.26Z" transform="translate(0)"/><path d="M749.74,1000c0-54.64.77-109.29-.42-163.9-.4-18.74,5-24.45,23.87-23.93,46.77,1.29,93.7,2.32,140.37-.27,29-1.6,23.45,15.87,23.41,31.91s5.64,33.37-23.37,32.11c-33.05-1.44-84.79-15.08-95.54,5.77-16.47,31.95-5.31,78.16-5.88,118.31Z" transform="translate(0)"/><path d="M624.87.51c0,62.47,0,62.47-60.51,62.47h-3.84C500,63,500,63,500,.51Z" transform="translate(0)"/><path d="M999.49,625.19c-28.61,0-57.49-2.45-85.76.64-32.65,3.58-43.24-7-40-39.77,1.8-18.3,5.58-24.54,24.35-23.74,33.74,1.44,67.6.4,101.41.4Z" transform="translate(0)"/><path d="M874.62,1000c0-62.47,0-62.47,63.72-62.47h61.15c0,62.47,0,62.47-62.44,62.47Z" transform="translate(0)"/><path d="M999.49,750.13c-14,0-28.06-.63-42,.18-13.47.78-19.88-1.62-21.07-18-2.23-30.72.47-53,40.21-44.87,7.33,1.5,15.24.21,22.88.21Z" transform="translate(0)"/><path d="M309.85,562.72c-9.1,0-18.32.94-27.28-.18-23.46-2.93-37.81,2.82-32.33,30.36,5.71,28.7-8.38,32.2-34,33.49C185,628,186.71,611.67,187.67,591.1c.73-15.57,1.79-31.42-.19-46.78-4.27-33.19,4.55-51.7,42.21-44.15,18.32,3.67,21.53-6.54,20.83-22.31-1-23.36,1.09-46.91-.64-70.2-1.75-23.53,3.05-33.38,30.52-33.58,28.83-.2,34.08,9.34,33,35.36-1.19,29.3-13.59,69.64,5.49,85.35,18.08,14.87,56.85,6.24,86.38,5,23.59-1,37.74,3.28,32.28,30.73-5.71,28.76,8.35,37.22,34.07,32.13,31.18-6.17,27.09,14,29.05,34.15,2.54,26.17-8.54,31-30.92,28.76-16.74-1.66-34-2-50.63,0-33.24,4.16-51.62-4.67-44.1-42.28,3.66-18.33-6.53-21.93-22.3-20.77C338.52,563.55,324.15,562.72,309.85,562.72Z" transform="translate(0)"/><path d="M375.13,124.87c0-7.8-.18-15.61,0-23.41.51-19.13-8.37-40.55,27.89-39.9,30.28.54,39.52,9.25,34.51,37.13-4.14,23,6.76,27.91,27.93,27.22,45.46-1.5,91.09,1.23,136.48-1.07,29-1.47,22.38,16.59,22.94,32.39.61,17.08,3.5,36-24,30.62-33.4-6.52-44.21,8.13-38.57,39.64,5.18,29-16,22.3-31.67,22.91-17,.66-36,3.56-30.63-24,6.51-33.42-8.15-44.17-39.65-38.73-7.58,1.31-15.57.19-23.37.19C375.13,187.91,375.13,187.91,375.13,124.87Z" transform="translate(0)"/><path d="M499.42,437.79c-33.81,0-67.74-1.82-101.38.55-29.08,2.05-22.37-16.55-23-32.35-.63-17.15-3.58-32.86,24.09-31.32,44.08,2.44,88.48-1.13,132.56,1.31,26.65,1.48,35.06-8.06,30.64-32.44-4.81-26.53,7.54-31,31.79-31.69,26.61-.72,31.42,8.41,31.3,32.79-.47,93.14.39,93.15-90.93,93.15Z" transform="translate(0)"/><path d="M812.18,660.1c0,18.21-2.38,36.81.51,54.55,5.57,34.28-12.36,37-39.31,36.16-18.32-.56-25.85-4.74-23.94-23.92,1.53-15.45-.66-31.26.5-46.78,2.55-34.24,3.78-64.44-46.89-55.65-25.34,4.39-15-19.11-14.92-30.24s-11.36-31.3,14.56-31.44c31.2-.16,62.42.54,93.6-.28,15.37-.41,16.18,8,16,19.56C811.91,608.07,812.17,634.09,812.18,660.1Z" transform="translate(0)"/><path d="M624.86,559.47c0,10.4-1.12,21,.24,31.19,3.34,25.13-2.5,35.52-32.07,35.91-31.89.43-32.54-14.19-30.84-37.19,1.25-16.82.23-33.81.25-50.72,0-37.19,15.65-48.24,51.47-38.68,10.68,2.85,10.91,8.72,10.93,16.56C624.89,530.85,624.85,545.16,624.86,559.47Z" transform="translate(0)"/><path d="M687.3,750.74c0,9.1-1,18.35.2,27.29,3.44,25.07-2.38,35.57-32,36-31.84.41-32.58-14.13-30.86-37.18,1.25-16.81.22-33.8.25-50.71,0-37.24,15.57-48.25,51.44-38.72,10.66,2.83,10.94,8.67,11,16.53C687.31,719.51,687.29,735.13,687.3,750.74Z" transform="translate(0)"/><path d="M436.81,284.28c8.45,30.85-12.07,27-32.56,29.31-30,3.37-27.92-12.91-30-34.08-2.92-30,13-28.08,34.19-29.94C438,247,441.29,261,436.81,284.28Z" transform="translate(0)"/><path d="M187,407.42c7.48,28.18-7.88,30.12-31.09,31.28-27,1.35-30.66-9-31.52-32.86-1-27,9-30.89,32.93-31.46C183.69,373.76,193.11,381.88,187,407.42Z" transform="translate(0)"/><path d="M375.57,838.58c-9-33,16.18-23.48,34.32-26.44,32.91-5.36,25.5,16.41,28.26,35.23,4.85,33-16.51,25.62-35.36,28.26C370.28,880.19,374,860,375.57,838.58Z" transform="translate(0)"/><path d="M156.91,126.27c27.29-7.07,31.2,6.44,31.85,30.65.7,26.06-7.59,31.67-32.42,32-26,.36-31.89-7.6-31.91-32.51C124.42,131,130.6,119.72,156.91,126.27Z" transform="translate(0)"/><path d="M873.4,158c9.05,33.43-12.74,28-32.53,30.56-30.92,3.95-27.14-14.06-29.47-34.45-3.54-31,14.1-27.4,34.56-29.42C875.94,121.77,878.86,136.37,873.4,158Z" transform="translate(0)"/><path d="M125.83,838.58c-9-33,16.18-23.48,34.32-26.44,32.9-5.36,25.5,16.41,28.26,35.23,4.84,33-16.52,25.62-35.37,28.26C120.54,880.19,124.2,860,125.83,838.58Z" transform="translate(0)"/></svg>