<svg id="Camada_1" data-name="Camada 1" xmlns="http://www.w3.org/2000/svg" viewBox="0 0 971.51 860.25"><path d="M255.32,158.53c6.48,2.33,18.61,6.19,30.35,11,35.72,14.6,71.29,29.57,106.91,44.4L527.1,270c33.43,13.92,66.83,27.92,100.31,41.73,39.7,16.38,79.5,32.5,119.19,48.88,34.93,14.42,69.75,29.1,104.65,43.58,35.59,14.76,71.4,29,106.76,44.29,17.87,7.72,29.09,22.07,35.08,40.75,5.64,17.58-1.57,32.86-7.75,48.29q-16.92,42.25-34.56,84.21c-10.52,25.16-21.53,50.11-32,75.27-9.88,23.71-19.29,47.61-29,71.36-8.1,19.73-16.41,39.36-24.64,59-13.3,31.78-26.23,63.71-40,95.27-10.56,24.16-30.59,36-56.17,36.78-9.24.29-18.92-4.13-27.92-7.63-21.76-8.45-43.27-17.55-64.81-26.54-23.5-9.8-46.88-19.88-70.39-29.66-25.41-10.58-51-20.85-76.37-31.44-20.17-8.41-40.16-17.26-60.36-25.6-24.18-10-48.58-19.46-72.75-29.47-20.42-8.46-40.59-17.5-61-26.06Q272,756.41,208.51,730.08C170.79,714.43,133,699,95.25,683.35c-13.27-5.51-26.48-11.19-39.53-17.2C33.58,656,16.49,620.94,27.23,597.34c10.51-23.13,19.39-47,29-70.52,14.82-36.18,29.58-72.39,44.55-108.51,11.82-28.51,24.06-56.84,35.87-85.36,12.87-31.06,25.29-62.31,38.22-93.35,6.94-16.63,14.07-33.22,21.94-49.43C206.28,170.71,227.41,158.38,255.32,158.53Zm323.31,643.1c3.78-2.44,8.85-3.85,10.3-7C595.77,780,601.72,765,607.77,750c2.64-6.56.23-16.17-4.47-18.28-7.72-3.47-15.58-6.66-23.41-9.88-32.57-13.36-65.2-26.59-97.71-40.09-20.68-8.57-41.12-17.71-61.8-26.27-31.05-12.86-62.27-25.32-93.33-38.17-24.21-10-48.24-20.47-72.43-30.55-26.36-11-52.8-21.76-79.22-32.61-13.07-5.37-26-11-39.27-15.92-7.75-2.9-14.38-.34-17.07,5.95-6.19,14.41-12.38,28.83-18,43.45-3.45,8.93-.55,15.58,8.26,19.77,10,4.74,20.15,9,30.34,13.28,24.66,10.21,49.42,20.16,74.06,30.42,24.21,10.09,48.24,20.59,72.47,30.63,25.17,10.41,50.54,20.33,75.71,30.75,23.75,9.83,47.28,20.17,71,30q59.73,24.85,119.6,49.36C560.71,795.22,569.15,798.1,578.63,801.63ZM836,672.45l.7-1.93c16,1.28,26.25-7.42,30.57-17.65,15.59-37,30.72-74.15,46.34-111.11,5.1-12,5.53-33.91-7.63-42.7a120.82,120.82,0,0,0-20.38-10.75c-32.93-13.75-66.06-27-99-40.81-19.43-8.13-39.72-.62-46.62,15.85C724.29,500.77,708.13,538,693.19,575.7c-2.91,7.37-2.65,16.83-1.29,24.89,2.59,15.32,15.9,20.66,28.38,25.87q43,18,86.3,35.44C816.22,665.79,826.16,669,836,672.45ZM548.27,501.39v19.84c10.43,2.48,19.1,11.25,30.92,9.87.94-5.57,1.77-10.61,2.62-15.65,2.7-15.94,5.25-31.91,8.12-47.82,3.46-19.15,7.39-38.21,10.57-57.41.38-2.26-2.07-6.1-4.28-7.44A85.74,85.74,0,0,0,580,395.47c-8.6-3-17.58-5.77-25.74.92C547.51,402,541,408,534.7,414.08q-33.26,32-66.29,64.26c-4.83,4.71-3.83,8.47,2.51,11,6,2.35,12.13,4.32,17.93,7,9.91,4.68,13.25,4.08,19-5.42,2.28-3.8,4.82-5,8.78-3.32C527.4,492.27,538.18,497,548.27,501.39ZM240.5,255.24l-2.23,2.25c1.64,2.87,2.78,6.23,5,8.51a105.3,105.3,0,0,0,14,12.17c9,6.38,7.39,15.33,6.32,24-1.53,12.48-3.74,24.88-5.4,37.35-1.94,14.55-3.24,29.18-5.48,43.68-1.72,11.12-.08,14.83,10.51,19.31,5,2.11,9.68,5,14.81,6.5,4,1.15,8,5,12.72,0,7.86-8.23,16.62-15.6,24.83-23.51q32.65-31.49,65.16-63.16c4.87-4.74,4.24-7.47-2.09-10.18-7.79-3.35-15.45-7.14-23.49-9.72-3.09-1-8.39-.49-10.44,1.57-18,18.07-35.46,36.65-54.32,56.36.95-4.9,1.54-7.89,2.11-10.88,3.38-17.9,6.53-35.85,10.25-53.69,1.82-8.74-.16-14.55-8.33-18.32q-15.78-7.29-31.85-13.94C255.35,260.52,247.88,258,240.5,255.24ZM443.39,472.62c2.1,0,4.19,0,6.29,0C467,472.23,480,464.91,485.11,448c4.21-13.86,1.8-27-8.74-38.09a127.47,127.47,0,0,1-13.11-17.06c-1.43-2.13-2.54-7.07-1.68-7.67,2.67-1.84,6.49-3.33,9.62-2.95,11,1.36,19.56,7.62,27.18,15.23,4.49,4.48,7.74,4.22,10.69-1.63a80.44,80.44,0,0,1,6.63-10.39c5.23-7.28,4.42-12.37-2.9-17.22-2.36-1.56-4.52-3.48-7-4.79-22.4-11.8-45.09-19-69.58-5.31-11.94,6.66-18.8,22.77-14.64,35.77,3.81,11.9,10.7,21.69,19.63,30.24,3.88,3.71,7.54,8.32,4.65,13.65-3.16,5.84-9.51,5.7-14.53,3-9.9-5.29-19.24-11.6-28.93-17.28-2.64-1.54-7.87-3.81-8.26-3.23a203.87,203.87,0,0,0-13.64,22.83c-.71,1.4,1.11,5.28,2.84,6.54C401.24,462.66,420.1,473.51,443.39,472.62Zm-84.58-30.33c1.7-1.62,4.34-3.33,5.88-5.74,6.75-10.61,13-21.55,19.78-32.15,13.86-21.68,28-43.19,41.9-64.81,2.53-3.93,2.2-7.17-2.76-9-4.09-1.53-8-3.45-12.16-4.92-17.25-6.19-15-10.68-26.09,6.93Q358,376,330.53,419.3c-5.51,8.75-5.08,9.54,5.16,13.11,2.65.93,5,2.59,7.65,3.69C348.06,438.09,352.85,439.92,358.81,442.29Z" transform="translate(-23.62 -99.17)"/><path d="M907.23,204.17h-8.41q-224.3,0-448.6-.1c-4.46,0-9.11-1.47-13.34-3.11q-29.75-11.58-59.29-23.71C358.31,169.32,339.22,160.94,320,153c-17.07-7.07-33.74-16.11-51.52-20.27-27.13-6.36-52.91-1.43-75.28,17.44-20.23,17.06-28.41,35.46-34.85,53.71H23.92c1.65-23.16-4.54-46.62,6.3-68.46,8.85-17.84,23.46-29.29,42.93-33.86A84.48,84.48,0,0,1,92.31,99.4q322.9-.15,645.8-.09c33.78,0,67.57.45,101.34-.13,23.24-.4,42.26,8,56.14,26,5.74,7.43,10.19,17.39,11.14,26.62C908.49,168.84,907.23,186.18,907.23,204.17Z" transform="translate(-23.62 -99.17)"/><path d="M24.41,527.92v-194H104.6C77.93,398.44,51.6,462.15,24.41,527.92Z" transform="translate(-23.62 -99.17)"/><path d="M761.15,333.71H906.71v62.54L760.46,335.6Z" transform="translate(-23.62 -99.17)"/><path d="M560.83,438.3c-2,10.48-4.07,21-6.36,32.72l-19.22-7.48,24-27Z" transform="translate(-23.62 -99.17)"/></svg>