<svg id="Camada_1" data-name="Camada 1" xmlns="http://www.w3.org/2000/svg" viewBox="0 0 918.14 993.03"><defs><style>.cls-1{fill:#080808;}.cls-2{fill:#d3d1d1;}.cls-3{fill:#ccc;}.cls-4{fill:#e6e6e6;}.cls-5{fill:#1f1f1f;}</style></defs><path class="cls-1" d="M334.92,827.32c-2.74,2-2.09,5.29-2.92,7.92-4.51,14.35-8.75,28.69-12.51,43.22-2.26,8.77-1.71,17.76-2.44,26.63-1.31,16-1.85,32-2.81,48-.23,3.93-.48,7.79-2.63,11.48-1.27,2.17-.19,5.26.53,7.82,1.53,5.51.35,9.71-5,12.58-1.71.93-3,2.65-4.5,4-4.75,4.06-9.52,3.87-14.5.09-4-3-9.17-3.8-13.48-6.42-6.6-4-12.73-8.83-19.87-12-2.23-1-3.33-3.2-4.41-5.17-6.18-11.24-12.9-22.24-18.15-33.9-6.5-14.44-15-27.73-22.61-41.48-3.74-6.74-4.18-13.66-4-20.46.64-19.4,2.32-38.77,3.6-58.15.23-3.47-1-7.42-.41-10.2,1.3-5.74.27-12.23,3.6-17.25,5.51-8.3,7.44-18,11.61-26.82,5.74-12.13,9.45-25.4,16.4-36.72,4.44-7.23,2-11.39-1-16.84-6.39-11.52-12.54-23.19-19.15-34.59-4.28-7.39-8.25-15-12.61-22.29a75.18,75.18,0,0,1-10.21-32.86c-.82-10-2.59-19.94-3.62-29.92-1.92-18.61-4.28-37.16-6.61-55.71-2-15.87-4.19-31.71-6.21-47.57A37.22,37.22,0,0,1,183,463.46q11.06-31.32,22.12-62.62c1-2.74,1.65-5.58,2.41-8.39.63-2.31-.49-2.9-2.37-2-16.27,8.13-33.88,13.37-49.48,22.92a18.88,18.88,0,0,0-5.62,5.39c-7.19,10.64-16.06,19.86-24.32,29.6-14.5,17.23-29.26,34.23-43.78,51.38-10.52,12.44-20.81,25.08-31.22,37.62a6.78,6.78,0,0,1-2,1.92c-6,2.81-9.06,8.37-12.9,13.32-4.18,5.42-9.91,8-17,6.24a3.92,3.92,0,0,0-1.36-.18C8.49,559.84,4.82,554.17,6,545c.44-3.6-2.49-5.87-3-9.18C.32,519.26-1.61,503,1.86,486.1c3.24-15.72,4.56-31.83,6.72-47.78a1.77,1.77,0,0,1,0-.46c4-8.87,2.14-18.55,3.7-27.79,1.88-11.14,9.06-19.33,14-28.73,2.33-4.39,4.43-8.91,7-13.23,8.39-14.15,16.39-28.54,24.15-43,2.7-5,7.33-7.25,11.72-9.64,14.59-8,27.42-18.51,41.19-27.67,7.6-5,15.9-9,22.8-15.17,2.61-2.32,6.18-2.5,9.56-2.4,25.59.72,51.19,1.32,76.8,1.43,4.14,0,8.16,1,10.74,4.89a6,6,0,0,0,2.5,2c11.29,5.14,21.08,12.69,31.27,19.59,1.67,1.13,2.51.16,3.58-.53,11.76-7.53,23.48-15.12,35.25-22.63,22.13-14.12,44.2-28.35,66.5-42.19,5.45-3.38,12.06-3.62,18.46-3.59a10,10,0,0,1,1.33.36c10.24,1.61,11.49.5,9.14-9.37-4.68-19.62-8.95-39.37-15.13-58.59-2.86-8.88-2-18-3.18-27-.67-5.34-.6-10.77-1-16.14-.83-9.64.13-18.89,5-27.48,3.34-5.88,4.39-12.68,7.94-18.66,1.5-2.52.61-7.82.83-11.86.14-2.47,0-4.94.1-7.41.18-4.09,1.26-7.82,4.6-10.57,5.06-4.15,7.76-10.71,14-13.63,1.53-.71,3-2.06,4.55-2.12,11.59-.44,16.61-10.09,23.05-17.06,8.23-8.89,21.39-12.59,32.1-7a45,45,0,0,1,16,14c3.13,4.39,6.49,7.77,12.27,8.92,7.64,1.52,13.86,5.73,18.69,12.2,3.1,4.15,7.72,7.52,7.87,13.06C526,55.62,527.74,60.28,527,65c-1,6.59,3,11.59,5,17.15,2.13,6,4.63,11.91,7.11,17.8,2.78,6.59,1.12,13.32,1,20-.33,12.62-.65,25.24-2.84,37.72a29,29,0,0,1-.86,3.57c-6.51,21.15-10.88,42.85-16.54,64.22-.69,2.62-.4,3.87,3.09,4.17,5.83.5,11.5-1.22,17.42-.15a41.7,41.7,0,0,1,15.27,6.33c20.62,13.15,41.38,26.1,61.82,39.53,10.89,7.15,21.49,14.73,32.78,21.25,2,1.16,3.21,1.27,5.65-.27,8.71-5.5,16.86-11.93,26.18-16.47a22.49,22.49,0,0,0,6.75-4.57,10.58,10.58,0,0,1,7.72-3.23c26.52-.48,53-1.14,79.56-1.66,4.9-.1,9,2,12.78,5.11,7.58,6.22,16.26,10.85,24.34,16.36q20.46,13.92,41.19,27.43c5.93,3.84,9.26,10.79,12.43,17.21,7.17,14.53,16.24,28,22.78,42.91,2.68,6.12,7.58,11.22,10.9,17.11a50.32,50.32,0,0,1,6.15,29.21,16.66,16.66,0,0,0,1.27,8.48c2.48,5.56,2.38,11.69,3.22,17.6,1.75,12.28,2.72,24.71,5.25,36.81,2.61,12.44,1.89,24.64,0,36.9-1,6.36-1,12.92-4.78,18.82-1.68,2.57-.09,6.62.24,10,.54,5.33-1.32,6.69-6.13,4.8a15.77,15.77,0,0,0-9.49-.29c-6.73,1.67-11.09-1.37-14.35-6.44-3.1-4.81-5.64-9.38-11.29-12.42-4.63-2.5-7.54-8.21-11.19-12.51l-35.65-41.89q-17.07-20.1-34.12-40.21c-8.4-10-16.68-20-25-30a19.39,19.39,0,0,0-7.23-5.37c-12.82-5.61-25.63-11.23-38.48-16.76-2.33-1-5.68-2.95-7.17-1.58-2,1.85.86,4.64,1.65,7,7.48,22.09,16,43.83,23.08,66,2.66,8.3,1.43,16.45.43,24.64-2.8,22.91-6,45.78-8.77,68.69-1.8,14.68-3.71,29.38-4.7,44.14-1.66,24.48-11.44,45.75-24,66.28A263.42,263.42,0,0,0,685,695.33c-2.56,5.57-6.09,10.71-9.36,15.94-1.53,2.45-1.34,4.33.61,6.43,5.08,5.51,6.34,12.87,9.15,19.48,6.92,16.33,13.82,32.66,20.82,49,1.37,3.21,1.59,6.5,1.71,9.91.16,4.7-.58,9.47,1.84,14,1.15,2.14-1.17,4.26-.94,6.91,1.42,16.43,2,32.93,3.41,49.36,1.18,14.22-4.43,26.07-11.61,37.61-3.69,5.93-8.63,11.68-10.74,17.88-5.18,15.25-15.69,27.56-21.39,42.37a13.66,13.66,0,0,1-5.87,6.91c-8,4.79-16,9.78-24.17,14.26-4.41,2.41-9.84,2.66-13.51,6.83-1.59,1.8-3.84.29-5.45-.76-3.82-2.49-7.9-4.77-11.11-7.92-3.66-3.58-2.4-8.62-1.61-13,.4-2.26.51-3.77-.77-5.88-1.54-2.56-1.77-5.75-1.94-8.85-1.26-22.79-2.27-45.6-4.09-68.34-1-12.82-6.26-24.81-9.55-37.18-1.7-6.38-4.28-12.52-5.86-18.93-1-4.23-2.2-3.48-4.56-1.13-12.54,12.54-24.21,25.93-37.18,38a35.3,35.3,0,0,1-14.13,7.86c-15.58,4.71-30.85,10.4-46.65,14.42a18.69,18.69,0,0,1-4.46.58c-10,0-20.06-.22-30.08.1a55.74,55.74,0,0,1-22.31-3.74c-12.64-4.92-26-7.83-38.54-13a34,34,0,0,1-9.83-5.88C365.73,858.7,356.2,847.24,345.4,837,342,833.66,338.41,830.51,334.92,827.32Zm279.23-41-.08.07a.91.91,0,0,0,1-.81.61.61,0,0,0,0-.19h0c6-4.26,9.49-11,15.27-15.59,11.29-9,18.2-21.54,24.86-34.1,1.12-2.11,3-3.89,2.78-6.58,3.61-4.67,7.54-9.11,11.14-13.75,2.48-3.2,3.4-7.71,5.81-11.27a2.31,2.31,0,0,0-.37-3l22.29-41.22c2.26-4.15,4.95-8.08,6.63-12.54,4.26-1.31,5.07-2.73,3.14-5.55A70.91,70.91,0,0,0,715.14,615c3.89-1.9,2.74-5.21,2.13-8.21-.32-1.57-1.56-2.94-1.32-4.71,2.34-6.42,1.81-13.27,2.85-19.89,1.84-11.71,3.18-23.51,4.33-35.31.77-7.87,2.84-15.61,2.34-23.6,4.71-.73,1.95-3.49,1.52-5.61.89-7.18,1.73-14.36,2.66-21.53,1.64-12.59,3.76-25-1.41-37.55-4.73-11.46-8.17-23.44-13.21-34.81-.08-3.44,2.52-7.57-2.49-9.75-2.14-5.67-4.21-11.35-6.43-17-1-2.57-1.86-5.1-1.45-7.9,3.34-.86,3-2.55.84-4.35a22.94,22.94,0,0,0-3.88-2.15c-2.74-7.54-5.43-15.09-8.23-22.61-1.55-4.15-1-9.12-3.14-12.66-2.74-4.54-4.33-9.31-6-14.18a26.45,26.45,0,0,0-10.5-14c-13-8.51-26.15-16.71-39.25-25-.27-3.65-2.64-4.36-5.71-4.09-16-9.61-31.11-20.53-47.23-29.92-8.51-4.95-16.08-11.43-24.88-16-.91-1.35-1.8-2.73-2.75-4.05-1.61-2.22-3.54-3.64-6.44-2.3A34.85,34.85,0,0,0,537.8,236c-9,0-18,0-27.11-.58-13.91-1-27.92-.27-41.85,1-6.32-3.86-12.66-4.45-19-.07-11.69-.14-23.38-.26-35-1.09-1.8-.13-3.68.22-5.21-1.13-1.88-2.23-3.76-2.27-5.64,0a15.48,15.48,0,0,1-9.13,2,59.19,59.19,0,0,0-24.19,2.64c-1.89-1.21-3.39-.42-4.71,1-1.51,1.6-3,3.27-4.42,4.9-6.82,4.54-13.56,9.2-20.46,13.6-9.86,6.29-20,12.21-29.72,18.65-6.95,4.59-13.88,9.17-21.19,13.15-3-.14-5.36.53-5.57,4.14a7.65,7.65,0,0,0-3.92,2.15c-5.44,6.4-13.71,8.52-20.38,13.13-5.59,3.87-11.82,7-17.38,10.94-3.54,2.52-6.61,6.17-7.49,10.63-1.54,7.76-5.83,14.48-7.45,22.26-2.14,10.2-5.3,20.19-10.53,29.35-3.68,2.64-4.06,3.59-2.63,6.42-2,8.87-4.24,17.66-8.22,25.9-4.44,2.14-3.32,5.79-2.53,9.36-1.22.25-1,1.36-1.29,2.18-4.78,13.55-9.62,27.09-14.3,40.68a19.54,19.54,0,0,0-1.21,8c1.05,14.11,3.72,28,5.09,42.08-.9,2.29-3,4.8,1.1,6.21.42,4.42.69,8.87,1.28,13.27,2.81,21.1,6,42.15,7.48,63.4.74,1.4.52,2.77.41,4.32-.19,2.88-2.06,6.26,1.36,8.63.8,9.7,2.65,19.11,7.52,27.7.06,3,0,6.09,4.1,6.52,2.1,5.42,5.84,9.88,8.58,14.93,3.53,6.51,7.26,12.93,10.58,19.55,3.47,6.91,8.31,13.09,10.85,20.49,0,1.18,0,2.41,1.67,2.55a1.22,1.22,0,0,1,.91,1.47,1.17,1.17,0,0,1-.12.31c-2.4.9-.56,2.2-.22,3.23,2.84,8.74,10.22,14.41,14.94,21.89.22,3.37,2.6,5.78,4,8.54,7.64,14.62,17.56,27.29,30.74,37.29a5.24,5.24,0,0,0,2.91,4.66,26.57,26.57,0,0,1,7.54,7.25c10.09,14.12,22.82,25.9,34.55,38.57.75.81,1.6,2.75,3.19.77,5.06,4.67,10.45,9,15.08,14.09s9.71,10.25,14.62,15.33a48.18,48.18,0,0,0,19.82,12.33c9.57,3.13,19.26,5.94,28.71,9.39,8.54,3.12,17.08,5,26.26,4.53,8.76-.45,17.56-.06,26.35-.1a18.51,18.51,0,0,0,4.51-.5c12.37-3.2,24.22-8.19,36.58-11.18,15.63-3.79,27-13.29,36.64-25.1,5.47-6.7,12.24-11.87,18.07-18.08,1.79,2.31,2.63,0,3.49-.88,4.16-4,7.82-8.64,12-12.58,9.38-8.85,16.68-19.44,25.36-28.84.63,0,.92-.29,1-.89Zm-547.59-334c-8.33,3-16.65,6.08-25,9a3.48,3.48,0,0,0-2.46,2.83c-5.48,19-10.91,38.05-16.74,57-2.49,8.07-3.66,16.68-9.24,23.66a5,5,0,0,0,.41,6.82c3.21,2.83,14.12,1.19,17-2.59,3.21-4.15,6.44-8.42,5.76-14.29a15.51,15.51,0,0,1,1.42-8.46c5.42-11.48,10-23.3,14.84-35,5.14-12.52,9.94-25.16,14.85-37.77.78-1.15.32-1.39-.84-1.09ZM42.7,536.82c2.12-2.29,3.7-3.83,5.1-5.54,4.75-5.79,9.32-11.74,14.17-17.45,9.12-10.75,18.43-21.35,27.58-32.08q16.11-18.87,32.09-37.85c6.23-7.36,13-14.3,18.58-22.18,4.89-6.83,9.9-14,17.87-17.18,17.37-7.05,33.88-16.19,51.91-21.66a3,3,0,0,0,1.57-1.52A239.82,239.82,0,0,0,222.74,352c.3-1.07,1.17-2.51,0-3.46-1-.81-2.24-.29-3.47.1-4.76,1.47-9.56,2.86-14.4,4.09-15,3.83-30.37,5.62-45.14,10.24-1.74.55-3.93.65-5.11,1.78-7.7,7.42-16.37,13.74-23.83,21.45-13.48,13.94-27.79,27-42.22,40-2.26,2-4.87,3.81-6.06,6.82-6,15.06-11.4,30.34-18,45.1-7.4,16.5-12.26,34-21,50C42.34,530.35,42,532.94,42.7,536.82Zm654.14-188c-.51.8,0,1.9.24,2.87,2.54,9.85,6.86,19.09,10,28.73a6.57,6.57,0,0,0,5.15,4.15c6.68,1.33,12.46,4.76,18.61,7.34,9.36,3.94,18.37,8.77,28.09,11.81,4.8,1.49,8,4.73,11,8.38,7.31,8.84,14.51,17.78,22,26.44,8.64,10,17.28,20,25.76,30.06,8.77,10.41,17.9,20.53,26.41,31.16,9.28,11.6,19.18,22.69,28.76,34,.8.94,1.4,2.42,2.76,1.73,1.54-.77.5-2.12,0-3.18-3.91-8.38-7-17.11-10.49-25.65-4.35-10.55-7.56-21.57-12.86-31.71-3.74-7.16-7-14.38-7.56-22.57a3.56,3.56,0,0,0-1.52-3.19c-2.56-1.55-3.73-4.24-4.27-6.84-1.4-6.76-5.6-11.7-9.69-16.89s-10.34-7.62-14.78-12.12C800.3,399,784.88,386,770.71,371.73a33.22,33.22,0,0,0-15-9.23c-5.61-1.54-11.22-3-16.91-4.27-13.86-3-27.69-6.21-42-9.42ZM459.38,175.39c6.79,0,13.58-.18,20.36,0A76.91,76.91,0,0,0,502,172.61c4.05-1,5.76-2.45,3.63-6.61a109.05,109.05,0,0,1-5.22-12c-8-21.91-15.9-43.86-24.25-65.64C471.7,76.66,467.06,65,463.7,52.89c-.61-2.18-1.52-3.76-4.41-3.64-3.07.12-3.22,1.89-3.64,4.17a44.29,44.29,0,0,1-2.29,6.93c-10.73,29-21.58,58-32.16,87.15-2.41,6.63-5.21,13.09-7.81,19.63-1,2.5-1,4.26,2.51,5.17,6.71,1.76,13.33,3.36,20.36,3.14C444,175.21,451.67,175.39,459.38,175.39Zm34.49,54c4.93,0,9.87-.14,14.79.05,3,.12,4.2-.76,5-3.85,3.9-15.66,6.72-31.6,11.69-47,1.73-5.37,1.48-5.31-4.4-4.53a40.76,40.76,0,0,0-7,1.58,123.28,123.28,0,0,1-43.81,6c-11.37-.58-22.8-.29-34.2,0a56.89,56.89,0,0,1-19.87-3.15,93.83,93.83,0,0,0-17.65-4.18c-1.29-.18-4.77-1.67-3.91,2.11,3.7,16.18,7.79,32.26,11.38,48.46.79,3.55,2.9,4.41,5.6,4.47,6.73.15,13.45.74,20.15.85,20.7.36,41.48.51,62.23-.78ZM166.63,339c.27-7.85-.51-15.68-.61-23.52a5.12,5.12,0,0,0-2.86-5c-11.69-7.3-23.33-14.7-34.71-22.48-2.29-1.57-3.68-1.4-5.62-.33-8.39,4.6-15.74,10.74-23.61,16.1-2.11,1.44-4.73,2.55-6.12,4.52-1.72,2.44,1.5,4.66,1.65,7.21a3.53,3.53,0,0,0,0,.46q3.45,16.33,6.91,32.66c.38,1.79.78,3.35,2.8,4.32a189.79,189.79,0,0,1,30.7,18.35c1.29,1,2,1,3.26-.2,3.17-3.12,6.74-5.85,9.84-9,4.23-4.36,10-4.51,15.27-6.1,2.43-.74,3.38-1.77,3.16-4.48C166.39,347.3,166.63,343.12,166.63,339Zm585.44-5.2h-.51c0,5.85.11,11.71,0,17.55-.07,2.58,0,4.21,3.29,4.74s6.47,2.37,9.76,3.44c5.24,1.69,8.31,5.8,11.62,9.79,2.21,2.65,4.56,3.64,8.06.9,8.7-6.83,18.73-11.61,28.3-17.08a7.28,7.28,0,0,0,3.85-5.51c2.85-12.59,5-25.36,9-37.64.55-1.66-.36-1.69-1.17-2.26-8.65-6.14-17.24-12.34-26.2-18-3.74-2.37-6.35-3.47-10.84-.16-10.21,7.54-21.19,14.06-32,20.72a5.9,5.9,0,0,0-3.16,5.92c.14,5.88.05,11.74.05,17.59Zm-445,626.1a23.16,23.16,0,0,0,.87-3.68c.67-12.6,1.16-25.22,1.94-37.82.77-12.44,1.13-25,2.94-37.25,1.43-9.73,4.34-19.31,7.41-28.7,3.23-9.88,4.23-20.51,9.8-29.61.9-1.46.14-2.57-.9-3.66q-13.74-14.34-27.46-28.71c-1.07-1.12-2.53-2.54-3.82-2.07s-1.58,2.42-1.7,4c-.78,10.39-3.33,20.53-4.89,30.81-2.65,17.49-4.17,35.21-9.15,52.38-1,3.49-1.92,8.71,0,12.91,3.1,7,5.09,14.27,7.39,21.49,4.6,14.46,9.42,28.86,14.18,43.28.65,2.09.81,4.47,3.38,6.63Zm303.76-.45,1.43.29c3.17-9.33,6.32-18.66,9.52-28,4-11.64,7.22-23.53,11.87-35,2.21-5.44,3.63-11.07,2.36-17.42-1.31-6.56-2.7-13.14-3.86-19.73-2.94-16.6-5-33.35-7.61-50-1-6.6-1.91-13.23-4-19.8a11.73,11.73,0,0,0-1.47.82c-11.27,8.86-19.68,20.6-30.24,30.18-1.49,1.35-.89,2.54-.14,4.07,1.4,2.84,3.06,5.55,3.87,8.7,2.08,8.19,4.3,16.35,6.56,24.49,2.52,9.1,6.32,18,7,27.39,1.69,21.62,2.67,43.3,4,65,.15,3.06.45,6.06.7,9.06ZM533.27,126.9c.42-12,2.11-23.13-3.49-33.48a34.83,34.83,0,0,1-3.3-7.5c-2-7.52-6.56-11.65-14.28-12.53a20.76,20.76,0,0,1-5.2-1.72c-7.41-3-15.29-6.4-17.6-14.5-2.65-9.34-8.91-8.88-15.91-8.58-3.11.14-4.08.48-3.06,4.3,4.74,17.59,13.24,33.74,18.83,51,6.42,19.82,14.6,39,21.84,58.53,2,5.27,3.31,7,9.08,5.7,7.54-1.68,7.71-1.07,9.87-8.84C533,148.34,532.27,137,533.27,126.9ZM385.49,111c.61,11.35,1.27,22.42,1.76,33.5a60.42,60.42,0,0,0,3.33,18c1.3,3.6,2.42,6.2,7,5.65,2.51-.3,5.38,1.41,7.67.76,2.68-.76,1.93-4.37,2.82-6.65,6.77-17.45,13.34-35,19.89-52.51,2.77-7.42,5-15.06,8.1-22.34C441,75.82,445.21,64,449.24,52.06c.67-2,.31-2.86-2-3.27-9.89-1.73-12.32-.76-17.41,7.89-1.31,2.22-2.31,4.61-3.44,6.92s-2.74,4.53-5.33,5.3c-7,2.08-13.62,5.49-21,6.47-2.18.3-2.92,1.54-3.67,3.43-2.6,6.46-5.24,12.92-8.3,19.17C386.06,102.25,384.91,106.59,385.49,111ZM17.89,422c-.09,2.39-.8,5.05,1.29,6.94,7.46,6.73,12,15.61,17.28,23.87,1.7,2.63,3,2.7,5.68,1.68,7.89-3,15.54-7.4,23.89-8,5.75-.43,6.49-3.91,8.17-7.39a24.9,24.9,0,0,0,2-6c.79-3.93,2.52-7,6.2-9,1.12-.61,2.82-1.37,1.39-3.91-4.92-8.81-9.53-17.81-13.9-26.91-2-4.13-4.8-6.09-9.22-5.84-6.81.39-13.56-.47-20.26-1.28-8-1-7.75-1.21-11.86,4.93C22.24,400.42,17.41,410.24,17.89,422ZM900,421.53c1.08-14.26-7.37-24.79-14.28-35.94a1.56,1.56,0,0,0-1.94-.7c-10,2.6-20.43,1.53-30.58,3.08a4.48,4.48,0,0,0-3.9,2.92c-4.65,9.49-9.16,19.07-14.36,28.26-1.19,2.12-1.13,3.11.2,4.22,3.59,3,6.44,6.83,7.35,11.05,1.71,7.94,5.28,12.46,13.87,13.21,6.6.57,12.36,4.54,18.6,6.74,4,1.4,5.53-.21,7.26-2.95,3.28-5.2,6.84-10.23,10.16-15.38,2.94-4.56,9.28-7.45,7.62-14.51ZM247.77,720.31c-3.2,5.51-5,11.11-7.46,16.36-5.38,11.49-10,23.32-15.09,35-.85,2-1.08,3.37.28,5.4,7.05,10.52,16.9,18.73,23.92,29.25,1,1.48,2.58,1.38,4.17,1.22a246.87,246.87,0,0,1,29.9-1.67c4.17.09,5.36-1.78,5.49-5.37.16-4.15.27-8.51,2.12-12.15,2.39-4.72.66-7.5-2.65-10.63C283,772.55,277,767.59,272.7,761.53A236.46,236.46,0,0,1,255,732.42C253,728.46,251.35,724.17,247.77,720.31Zm415.56,87c1.95-.18,5.45.21,6.64-2.61,3.23-7.64,10.53-11.76,14.94-18.33,2.67-4,7.83-7.18,8.85-11s-2.9-8.75-4.76-13.16q-8-19-16.19-38c-.46-1-.73-2.58-2.2-2.62s-1.65,1.53-2.2,2.58c-4.73,9-9.08,18.26-14.56,26.89-4.34,6.84-8.76,13.65-14.89,19a95.9,95.9,0,0,0-12.88,13c-.63.82-1.61,1.35-.87,2.71,3,5.49,3.14,11.73,4.49,17.65.38,1.64.61,2.43,2.46,2.31,10.18-.58,20.26,1,31.17,1.61Zm-387.27,74.5c.12-2.15.4-3.67-1.14-4.44a22.79,22.79,0,0,1-4.9-3.16c-6.47-5.62-13.27-10.79-19.53-16.62-3.76-3.49-6.18-1.92-9.55.43-9.16,6.39-16.77,14.87-26.85,20-2.47,1.26-1.73,2.81-.77,4.52,5.69,10.09,11.62,20,16.6,30.53,1,2.06,2.53,3.64,4.83,3.75,7.74.4,14.89,3.47,22.41,4.85,3.08.57,4.52-.25,6.63-2,5.86-4.85,9.15-12.32,16.26-15.86,1.71-.86,0-1.76-.14-2.62C278.49,894.51,273.84,888.44,276.06,881.81ZM660,922.23l1.81-.46c6.36-1.64,12.65-3.81,19.11-4.68,3.45-.47,5.56-1.41,7.14-4.32,4.52-8.34,9.17-16.6,13.68-24.93,1.43-2.66,3.82-5.56,3.58-8.15-.27-3-4.71-3.2-7.08-5-.24-.18-.41-.47-.67-.63-8.24-5.47-15.29-12.47-23.78-17.65-2-1.18-3-1-4.51.2-6.48,5.25-12.73,10.85-19.56,15.61-5.14,3.58-9.82,6.65-7,14,.33.86-.14,2.1-.44,3.11-1.13,3.88-2.19,7.79-3.61,11.56-.58,1.52-.81,2.69.51,3.62,5.92,4.2,9.65,10.5,14.89,15.33,1.24,1.11,2.42,2.94,5.93,2.39ZM95.73,351.3l-1-4.5c-2.19-10.14-4.42-20.27-6.53-30.42-.68-3.26-1.94-4.05-4.86-2-3.64,2.52-7.77,4.41-11.13,7.23-2.76,2.33-6.82,2.78-8.71,6.13-9.13,16.18-17.64,32.71-27.47,48.5-1,1.52-1.3,2.55,1.28,2.91,5.29.72,10.54,1.68,15.91,1.71,3.53,0,7.23-.46,10.55.42a5.19,5.19,0,0,0,6-1.7c8-8.44,16.13-16.82,24.21-25.21C94.81,353.47,96,352.8,95.73,351.3Zm756.56,30.53c8-.83,15.43-1.9,22.92-1.94s7.73-.54,4-7.17C873.79,363,868,353.52,863,343.5c-3.45-7-6.7-14.37-13.43-19.13-4.72-3.34-9.68-6.34-14.31-9.8-3.34-2.48-4.77-1.86-5.61,2.11-2.27,10.75-4.7,21.47-7.15,32.18-.57,2.51.15,4.24,2,6.06,7.55,7.64,14.94,15.43,22.36,23.19C848.57,379.87,849.36,383,852.29,381.83ZM132.15,282.76a33.58,33.58,0,0,0,3,2.34q16.5,10.5,32.91,21a8,8,0,0,0,5.28.95c9.67-.65,19.38-.18,29.06-1,2.45-.2,4.31-.71,5.34-2.63,3.91-7.28,10.11-12.54,15.69-18.37,2.69-2.82,1.77-5.88-2.08-6.84a10.72,10.72,0,0,0-2.77-.08c-23.42.5-46.81-1-70.22-1.09C142.25,277,136.23,276.25,132.15,282.76Zm654.11.28c-4.28-6.15-9.88-6-15.67-5.89-23.88.47-47.77.75-71.65,1.09h-1.39c-2.4-.16-3.61,1.65-4.72,3.21-1.34,1.9,1,2.55,1.81,3.53,4.9,5.67,10.17,11,14.81,16.92,3,3.82,6.36,4.88,11,4.43a79.52,79.52,0,0,1,12.91.26c8.86.6,17.61,1.28,24.73-5.85,2.09-2.09,5-3.4,7.56-5C772.58,291.46,779.49,287.2,786.26,283ZM696.88,782.25c-8.59,10-16.82,19.65-25,29.28a1.82,1.82,0,0,0-.2,1.31,112.45,112.45,0,0,1,1.81,23.81c-.4,10.27,4,16.48,12.75,20.57,1.6.75,2.78,2.37,4.34,3.25,5.36,3,9,8.54,15.08,10.8.52-7.24-.77-14.1-1.13-21-.94-18.37-2.39-36.71-3.28-55.08A25.14,25.14,0,0,0,696.88,782.25Zm-475.73.34a12.46,12.46,0,0,0-3.31,5.78c-1.69,4.9-.74,10-1.18,15-1.25,14.25-2.17,28.53-3.12,42.8-.55,8.37-.92,16.74-1.39,25.44,1.09-.3,1.6-.29,1.89-.54a328.84,328.84,0,0,1,27.6-21c1.35-.94,1.21-2.32,1.46-3.67,2-10.75.89-21.82,3.37-32.52.32-1.37-.63-2.45-1.32-3.27C237.3,801.31,229.33,792.12,221.15,782.59ZM851.26,452.81a7.75,7.75,0,0,0,.42,4.59q3,6.78,5.85,13.65,9.33,23.1,18.55,46.23c2.26,5.68,6.11,11.12,6.22,17.15.11,5.75,2.52,10,5,14.63,1.68,3.14,4.15,4.2,7.57,3.48a20.29,20.29,0,0,1,3.65-.4c7-.16,7.69-1.13,5.58-8.1a13.89,13.89,0,0,0-1.4-3.8c-5.47-7.93-6.77-17.47-9.73-26.29-5.44-16.17-9.56-32.79-14.34-49.2-.36-1.26-.49-2.77-2.51-3.41C867.83,458.71,859.67,455.73,851.26,452.81Zm-34.52-95c-1.55,1-3.48,2.19-5.43,3.37-8,4.85-16,9.74-24.07,14.5-2,1.21-2,2-.35,3.64,2.31,2.23,5.49,3.56,7.44,5.85,6,7.06,13.48,12.52,19.74,19.27a61.71,61.71,0,0,0,12.48,10.42c2,1.23,2.94,1.35,4.08-1,4.22-8.56,8.62-17,13-25.53.93-1.8,1.07-3.21-.57-4.88-7.81-7.94-15.46-16-23.19-24-.73-.79-1.33-1.8-3.13-1.65ZM131.81,376.49c-9.62-6.22-19.29-12.06-29.13-17.64-2.19-1.24-3.42-.75-5,.95-4.31,4.78-8.41,9.82-13.27,14a97.45,97.45,0,0,0-10.18,10.44,2.33,2.33,0,0,0-.53,2.89c5.21,10,10.41,20.07,15.83,30.53C103.94,403.67,118.49,390.85,131.81,376.49ZM476.68,42.13c7.36.13,6.71-.11,9-6.41,2.07-5.72,1.64-9.6-2.89-14s-8-9.9-13.76-13c-6.91-3.76-19.07-2.41-23.44,3.51-3.19,4.32-7.2,7.65-10.78,11.48-1.41,1.51-3.77,2.67-3.11,5.24,1.1,4.25,2.36,8.48,3.82,12.62.35,1,2,.52,3,.51a113.67,113.67,0,0,1,12,.69,98.35,98.35,0,0,0,16.28.32C470.25,42.87,473.69,41.74,476.68,42.13Zm164.1,770v-.19h-4.16c-5.6,0-5.68.21-4.82,5.71,2.56,16.28,4.9,32.6,8.18,48.77.87,4.32,1.37,4.74,4.57,1.76,6.59-6.12,14-11.15,21.15-16.54a5.39,5.39,0,0,0,2.43-5c-.73-9.82-1.59-19.63-2.16-29.45-.16-2.63-1-3.24-3.56-3.36-7.21-.46-14.42-1.17-21.63-1.75Zm-369.43.46v.07c-4.93.3-9.85.71-14.77.85-3.06.09-4.3,1.39-4.53,4.44-.71,9.52-1.65,19-2.49,28.53-.1,1.2-.31,2.36,1,3.29,2.1,1.53,4,3.26,6.08,4.89,5,4,10.09,7.74,14.82,12,1.79,1.59,3.59,4.29,5.56,4s.73-3.49,1.07-5.38c3-16.71,6.07-33.4,8.19-50.24.24-1.92.27-3.28-2.43-3C279.68,812.39,275.49,812.43,271.35,812.59ZM172.49,332.43h.15c0,5.7.05,11.39,0,17.09,0,2.72.66,3.81,3.76,3.2,12.58-2.46,25.11-5,37.42-8.7,1.87-.55,2.7-.86,1.85-2.95-3.5-8.61-6.9-17.26-10.31-25.9-.75-1.92-2-3.13-4.14-2.79-8.56,1.35-17.2.53-25.8.88-2.57.1-3,1.29-2.94,3.48C172.56,322,172.49,327.2,172.49,332.43Zm573,.9h.06c0-5.7-.07-11.4,0-17.1,0-2-.25-3.09-2.67-3.08-8.93.05-17.87,0-26.8-.23-2,0-3.1.58-3.8,2.44-3.09,8.3-6,16.69-9.53,24.81-1.58,3.66,0,4.06,2.76,4.64q18.15,3.94,36.28,8c2.56.58,3.91.42,3.74-2.87C745.28,344.44,745.49,338.88,745.49,333.33ZM902,435.21a26.33,26.33,0,0,0-3,2.88c-4.87,7-9.67,14-14.52,21-.75,1.08-.2,2.16.08,3.07,7,23.31,14.12,46.58,21.11,69.89a4.67,4.67,0,0,0,2.61,3.21c1.65-7.72,1.88-15.39,3.06-22.93.51-3.19,1.11-6.33.64-9.54-1.13-7.68-2.39-15.34-3.51-23C906.28,465.22,904.19,450.64,902,435.21ZM9.86,536c1.78-.77,2.06-2.31,2.48-3.72,6.48-21.71,12.9-43.43,19.43-65.12,1.5-5,1.34-9.4-2.44-13.52-2-2.21-3.36-5.08-5-7.68-2.29-3.72-4.25-7.7-8-10.27A5.32,5.32,0,0,0,15,439.24c-1.53,16.49-4.18,32.85-7.11,49.15C5,504.45,6.73,520.14,9.86,536ZM282.3,909.51c-4.73,6-10,10.81-15.13,15.85-1.47,1.45-.32,2.4.16,3.46,5.75,12.63,12.44,24.8,18.37,37.35,2.64,5.56,6.28,10.52,6.75,17,.17,2.42,2.24,2.69,4.19,2.06,7.07-2.29,10-9,8.18-16.19-1.1-4.45-5.35-6.51-6.31-10.9a167,167,0,0,0-4.79-16.58C290.19,930.89,286.89,920.18,282.3,909.51Zm329.9,66.3c.62,1.94.85,3.52,2.6,4.49a39,39,0,0,1,4.45,3.22c3.88,2.94,5.45,2.58,6.76-2,1.19-4.18,1.66-8.63,4.07-12.35,8.21-12.72,14-26.72,21-40,.92-1.74.79-2.79-.73-4.23-4.23-4-8.41-8.14-12.24-12.54-2.61-3-3.76-1.63-4.42,1-3.48,14-9.12,27.34-13.37,41.11-.92,3-.88,6.78-3.33,8.71-4.45,3.5-1.71,9.1-4.79,12.59ZM259,303.32a9,9,0,0,0-1.28-1.54c-7.81-5.49-15.4-11.29-23.94-15.69-1.53-.78-2.61-.71-3.59.58-5.71,7.5-13.14,13.51-18.23,21.59a4.84,4.84,0,0,0-.46,5.33Q217,326.25,222.38,339c.37.88-.17,2.31,1.62,2.13,1.24-.12,1.71-.9,2.27-1.92,1.33-2.44,1.85-5.13,2.66-7.73,2.25-7.19,5.4-13.62,12.56-17.41,5.34-2.83,10.36-6.27,15.53-9.45Zm435.28,38.44c4.67-9.86,8.9-19.7,12.52-29.79.48-1.33,1.19-2.31,0-3.7-6.47-7.25-12.84-14.59-19.22-21.92a2.1,2.1,0,0,0-2.86-.52A196.56,196.56,0,0,0,659,302.68c3.93,2.51,7.27,5,10.89,6.89,10.57,5.63,18.59,13.24,21.16,25.51A13.88,13.88,0,0,0,694.27,341.76ZM285.37,980.51c-.49-3.73-3.17-6-4.51-8.91-5.68-12.36-11.47-24.66-17.84-36.68-1.34-2.53-2.29-5.71-5.36-6.52-7.16-1.91-14.43-3.43-22.37-5.27,1.09,2.16,1.77,3.51,2.46,4.86,5,9.93,11.39,19.16,15.79,29.41a20.4,20.4,0,0,0,11.16,11.27c1.36.58,2.56,1.54,3.91,2.17C274.37,973.53,278.91,978.38,285.37,980.51Zm348.09,0c7.07-4.21,13.44-8.54,20.28-11.9a22.15,22.15,0,0,0,11.2-11.77,152.64,152.64,0,0,1,12.72-23.75c1.93-2.93,3.3-6.23,5.48-10.43-5.82,1.64-10.44,3.7-15.19,4.12-7.56.67-10.91,5.29-14.14,11.28-6.32,11.83-11.15,24.53-18.54,35.83a9.63,9.63,0,0,0-1.78,6.59Zm-233.9-911c5.62-1,10.17-3.3,15-4.49,3.63-.9,6.06-2.65,7.41-6,1.71-4.26,4.31-8,6.74-11.85,1.18-1.86-1.18-14.69-2.9-15.68a2.39,2.39,0,0,0-1.32-.13,21.8,21.8,0,0,0-14.55,6.57c-7.45,7.36-13.21,15-11.14,26.31.17.94-.57,2-.68,3-.16,1.48.29,2.5,1.44,2.19Zm121.33-4.46c.17-4.08-1.39-7.26-1-10.68.46-3.75-1.19-6.8-3.74-9.42-1.6-1.66-3.57-3.08-4.78-5-3.61-5.72-9.29-7.54-15.35-9-1.94-.46-2.94,0-3.48,1.79-2.22,7.25-2.26,14.11,1.63,21.12,4.79,8.62,12.69,11.86,21.35,14.35C520.93,69.79,520.91,69.85,520.89,65.05Z" transform="translate(0.01 -0.02)"/><path class="cls-1" d="M727,517.78c.43,2.12,3.19,4.88-1.52,5.61l-51.2-10c.06,2.72,1.21,4.41,2,6.19,11.62,26.67,24.7,52.65,37.14,78.94.64,1.35,1,3,2.55,3.67-.24,1.77,1,3.14,1.32,4.71.61,3,1.76,6.31-2.13,8.21-.62-1.57-1.12-3.2-1.86-4.71-13.11-26.79-24-54.64-38.1-81-1.38-2.57-1.51-5.88-4.33-8-1.63,5.69-.83,11.33-2.07,16.68-3.53,15.09-6.87,30.22-9.6,45.47A85.6,85.6,0,0,1,643.06,621c-3.6,4.74-6.29,10.17-9.51,15.21-1.63,2.56-1,3.4,1.93,3.49q35.55,1,71.12,2.25c1.93,2.82,1.12,4.24-3.14,5.55-1.08-.09-2.15-.24-3.22-.27-22.48-.71-45-1.34-67.44-2.16-3-.11-2.9,1.28-2.61,3.35,1,7.46,2.1,14.92,3,22.39q3,24.43,6,48.88c.7,5.55,1.62,11.07,2.45,16.74,2.64-.8,3.74-2.57,5.05-4C656,722,666.47,712.73,674.5,701.24a2.31,2.31,0,0,1,.37,3c-2.41,3.56-3.33,8.07-5.81,11.27-3.6,4.64-7.53,9.08-11.14,13.74-1.94,0-2.88,1.58-4.07,2.73-13.44,13-23.34,28.76-34,43.92-2.08,3-4.81,5.62-4.84,9.63h0c-1.34-.7-1.27,0-1,1l.08-.07c-1.15-.58-1,.28-1,.92-8.68,9.4-16,20-25.36,28.84-4.18,3.94-7.84,8.54-12,12.58-.86.83-1.7,3.19-3.49.88,10-19.48,19.48-39.3,30.31-58.33,5.77-10.14,4.5-20.4,5.32-32.21-12.63,14.84-24.38,28.62-36.12,42.45-4.53,5.38-9.69,9.68-16.35,12.34-13.15,5.25-26.48,10-39.15,16.46-4.38,2.22-9.25,3.09-14.14,3.7-9.67,1.2-19.36,2.29-29,3.82-5.41.87-10.72,3.24-16.25,2.17-10.51-2-21.29-2.37-31.65-5.15-5.94-1.59-12.28.2-18.08-2.7-12.44-6.22-25.41-11.16-38.44-16-7.13-2.63-14.51-5.07-19.56-11.49-3.81-4.83-7.89-9.45-11.86-14.15l-27-31.9c.36,8.1.61,14.79,1,21.46a10.19,10.19,0,0,0,1.14,3.92q16.57,32.35,33.24,64.65c-1.59,2-2.44,0-3.19-.77-11.73-12.67-24.46-24.45-34.55-38.57a26.57,26.57,0,0,0-7.54-7.25,5.24,5.24,0,0,1-2.88-4.54c1.44-1.67,0-2.74-.78-4A270.71,270.71,0,0,0,269,737c-1.8-2-3.17-4.66-6.28-5.06-4.72-7.48-12.1-13.15-14.94-21.89-.34-1-2.18-2.33.22-3.23,7.85,9.85,17,18.49,25.44,27.82.69.76,1.32,2.07,2.51,1.71,1.44-.42,1.06-2.05,1.35-3.18a17.49,17.49,0,0,0,.14-2.29c1.66-13.72,3.28-27.45,5-41.15s3.51-27.09,5.39-40.61c.48-3.41-.8-4.4-4-4.23-7.84.43-15.69.67-23.54,1q-22.37.86-44.75,1.67c-4.14-.43-4-3.52-4.1-6.52,1.6,1.33,3.51.92,5.31.86,21.87-.69,43.73-1.48,65.59-2.08,3.51-.1,4.13-1,2.22-3.93-5-7.72-9.84-15.56-14.9-23.26a61.41,61.41,0,0,1-9.18-22.34c-1.53-7.78-2.26-15.74-4.24-23.38q-4-15.67-6.68-31.58c-.72-4.39-1.18-8.83-1.79-13.49-2.13,1.19-2.48,3-3.2,4.41-3.53,7.13-7.13,14.22-10.47,21.43C224,569.51,214,591.39,203.92,613.25c-3.42-2.37-1.55-5.75-1.36-8.63.11-1.55.33-2.92-.41-4.32,2,1.12,2.4-.69,2.92-1.8q19-40.68,38-81.43c.5-1.07,1.82-2.31.43-3.9l-50.08,10.42c-4.07-1.41-2-3.92-1.1-6.21a3.26,3.26,0,0,0,3,.64c14.64-3.11,29.28-6.18,43.9-9.38,6.27-1.38,6.35-1.66,3.51-7.46-9.08-18.54-18.19-37.12-27.43-55.59-3.57-7.13-7.5-14.08-11.27-21.11-.79-3.57-1.91-7.22,2.53-9.36a8,8,0,0,0,1.07,3.94l37.77,75.45c.55,1.12.73,2.63,2.52,3,1.7-15.92,3.5-31.6,5-47.31.84-8.77,1.67-16.62,9.84-23,16-12.46,30.93-26.31,46.25-39.64,3.85-3.34,7.52-6.87,11.26-10.32-.23-.38-.46-.76-.7-1.14L214.73,389.17c-1.43-2.83-1-3.78,2.63-6.42a6.58,6.58,0,0,0,1.82.22c16.7-2.75,33.58-4,50.35-6,17.69-2.2,35.36-4.6,53.06-6.73,3.68-.44,3-1.7,1.73-4.09Q305.58,331.86,287,297.5c-.64-1.17-1-2.64-2.48-3.18.21-3.61,2.58-4.28,5.57-4.14-.64,1.63.07,3,.82,4.34l35.38,65c.8,1.47,1.27,3.45,3.43,3.8a8.85,8.85,0,0,0,.43-1c9.32-33.71,18.7-67.4,27.88-101.14,1.47-5.38,4.2-10.55,3.43-16.41,1.47-1.63,2.91-3.3,4.42-4.9,1.32-1.4,2.82-2.19,4.71-1a21.91,21.91,0,0,0-2.32,4.86q-15,55.05-30.19,110c-.48,1.77-1.62,3.6-.77,5.61,1.64-.09,2.39-1.15,3.2-2,13.93-15,28.16-29.83,41.67-45.24,17.57-20,35.82-39.47,53.59-59.35,4.78-5.35,10.38-10,14-16.34,6.36-4.38,12.7-3.79,19,.07,4.78,7.8,11.35,14.14,17.42,20.82,30.07,33,60.39,65.86,90.63,98.75,1.09,1.19,2,2.67,4,2.55.6-1.17,0-2.17-.22-3.18-9.1-33.58-18.2-67.21-27.62-100.73-1.58-5.62-1.75-11.8-5.5-16.73,2.9-1.34,4.83.08,6.44,2.3,1,1.32,1.84,2.7,2.75,4.05-1.11,3.24.78,6,1.56,8.89q14.34,53.18,28.93,106.29c.35,1.28-.06,3.61,1.78,3.77s1.84-2.15,2.53-3.39Q609.3,327.59,627,295.34c.86-1.58,2.07-3.12,1.78-5.13,3.07-.27,5.44.44,5.71,4.09-2-.38-2.19,1.39-2.79,2.48q-18.3,33.72-36.51,67.5c-2.91,5.42-2.35,6.06,4,6.74,15.74,1.68,31.46,3.47,47.18,5.28q27.65,3.18,55.28,6.46a22.94,22.94,0,0,1,3.88,2.15c2.18,1.8,2.5,3.49-.84,4.35L597.78,376.08a14.44,14.44,0,0,0,1.54,2.25q11.41,10.1,22.88,20.14,18.94,16.54,37.94,33c2,1.73,3.79,3.52,4.07,6.44.93,9.79,2,19.58,3,29.37,1.07,10.29,2.17,20.58,3.41,32.21.93-1.68,1.21-2.15,1.46-2.64,10.24-20.49,20.63-40.9,30.65-61.5,3.41-7,7.53-13.69,9.78-21.23,5,2.18,2.41,6.31,2.49,9.75-1.39.35-1.74,1.57-2.28,2.66C700,452.24,687.27,478,674.4,503.61c-1.56,3.12-1,4.12,2.29,4.75,9.79,1.83,19.48,4.22,29.31,5.8C713,515.31,719.77,517.82,727,517.78ZM515.87,500.39c.19.42.39.84.58,1.25q15.94,27.11,31.92,54.18a12.13,12.13,0,0,0,3,3.42q27.75,21,55.56,41.87c2.68,2,5.62,2.16,8.71,1.75,9.51-1.26,19-3,28.55-3.63,4.33-.3,5.8-1.87,6.73-5.68,2.77-11.38,4.13-23.08,8.07-34.21,1.45-4.08,1.61-8.61,2.42-13.3-10.62,2.27-20.54,4.71-29.93,8.92-2.08.94-4.34,1.46-6.25.79-14.33-5.06-30-2.94-44.24-8.43a7.26,7.26,0,0,0-3.21-.21c-5.68.54-10-2.12-14-5.67l-46.46-41-.92-.64c-.38-.3-.76-.85-1.22-.15C515.15,499.76,515.63,500.15,515.87,500.39Zm78,301.85c.43-.29,1.17-.56.51-1.16s-.89.28-1.28.57c-.21.48-.48,1,.11,1.36a7.92,7.92,0,0,0,.64-.77Zm-270.6-1.84a6.23,6.23,0,0,0,.71.83c.68-.42.3-.94.06-1.44-.81-.82-.57-2.78-2.68-2.48a4.66,4.66,0,0,0,.41,1.41,18.14,18.14,0,0,0,1.48,1.68Zm7-301.24,1.27.85a1.07,1.07,0,0,0-.2-1.49,1.15,1.15,0,0,0-.39-.18c-1.64-5-3.11-10-.2-15.13-10.95,8.53-12.9,6-.5,16ZM595.72,799.48c2.43-3,5-5.79,7.25-8.86,9.17-12.49,18.36-25,27.29-37.62,3-4.25,7.25-8.17,6.28-14.25-.92-5.73-1.54-11.48-2.08-17.27-1.13-12.12-2.92-24.18-4.72-36.23-1-7-1.09-14.23-3.2-21.9-2.4,8.08-3.1,15.74-4.38,23.27-4,23.7-10.22,47.13-8.57,71.53.18,2.64-.83,5.32-2.12,7.84-5.6,10.9-11.7,21.55-16.47,32.87-.29.42-1,.86-.33,1.36S595.49,799.94,595.72,799.48ZM331.1,751.81c-.35-.55-.83-.87-1.4-.4-.12.1.18.7.29,1.06.32,2.51,2.32,4,3.79,5.65,12.46,13.89,22.48,29.78,42.41,36,18.13,5.67,35.12,15.06,54.57,16.26,6.66.41,12.86,3,19.45,3.42,16.11,1,31.84-2.09,47.52-5,7-1.32,14.15-1.27,20.92-4.61,12.47-6.15,25.35-11.46,38.16-16.87a21.31,21.31,0,0,0,8.44-6.15c7.61-9.09,15.29-18.12,22.87-27.23.89-1.06,2.65-1.88,1.81-3.87-1.64-.5-2.52.81-3.54,1.55-11.83,8.55-23.56,17.23-35.44,25.69-5.31,3.79-10,8.71-16.89,9.91-3.29.57-6.43,2-9.66,2.9-20.22,5.89-39.65,15.43-61.58,13.63a6,6,0,0,0-1.83.16,45,45,0,0,1-22.27-.65c-15.54-4.15-31.33-7.59-46.2-13.94-6-2.58-12.92-2.45-18.4-6.81-7-5.53-14.26-10.67-21.58-15.74C345.38,761.77,339,755.77,331.1,751.81Zm153.45-232c17.67-17.65,35.55-35,56.2-49.31,2.14-1.48,4-3.59,6.78-3.61,7.1,0,14.12-1,21.15-1.75,4.81-.54,8.61,1,12.2,4.12,6,5.29,12.33,10.18,18.42,15.36,2.3,1.95,4.36,2.12,7.09.77,8.64-4.29,17.41-8.31,26.1-12.5,1.78-.86,4.1-.92,5.52-3.17a60.37,60.37,0,0,1-25-5c-12.67-5.35-25.43-10.49-38.06-15.94a25.12,25.12,0,0,0-13.43-2.16c-7.17.93-14.36,1.66-21.61,1.9a15.76,15.76,0,0,0-10,4.05c-8.6,7.48-16.91,15.37-26.1,22.05s-15.47,14.6-16.17,26.32c-.38,6.42-3.72,12.4-3,19l-.57-.33-.15.56ZM401.82,500a14.68,14.68,0,0,0-1.92,1.2l-47.41,42a13.64,13.64,0,0,1-7.68,3.83c-13.57,1.61-27,3.87-40.41,6.62-5.59,1.15-11.2,3.61-17,1.18-8.69-3.53-17.91-5.23-26.91-7.7-1.2-.33-2.63-1.87-3.7-.45-.5.67.18,2.27.39,3.44,2.73,15,8.08,29.42,10,44.59.33,2.59,1.39,3.82,4.21,4.21,10,1.4,20.05,2,30,4,3.51.71,7.12.69,10.58-2,17.44-13.37,35.12-26.42,52.7-39.61a21.39,21.39,0,0,0,5.52-6.16l32.58-54.4c0-.41.17-1,0-1.17-.47-.38-.75.07-.95.46Zm143.24,14.62a2.53,2.53,0,0,0-2.73-.19l1.56,1.22c8.15,7.28,16.39,14.45,24.39,21.89a15.43,15.43,0,0,0,8.91,4.24c10.67,1.06,20.93,4.49,31.6,5.34,8.07.64,16,3.49,24.26,1.24,9-2.44,17.89-5,26.6-8.26,1.68-.64,3.1-1.31,3.22-3.38.67-10.9,3-21.7,2-32.7-.94-10.43-1.79-20.86-3-31.26-.39-3.28.12-6.91-2.26-10.64-5.56,8.14-13.94,11.08-21.75,14.88-2.89,1.4-5.83,2.72-8.74,4.08-14.13,6.59-28.52,12.77-39.36,24.63-6.09,6.66-12.7,10.92-22.7,10-7.22-.66-14.69.35-22-1.05ZM374.3,515c-9.09.25-18.19.26-27.25.82-5,.31-8.66-1.42-12.4-4.65-9.45-8.16-18-17.2-29.74-22.8-16.11-7.69-33.73-12.83-47.1-26-.8,7.54-1.17,14.78-2.41,21.86-3,17.19-2.19,34.32-.19,51.49.32,2.67,1.37,3.87,4.19,4.45a102.47,102.47,0,0,1,18.17,5.88,41.69,41.69,0,0,0,25.16,2.5c9.5-2,19-4.33,28.87-5,8-.53,15.71-2.39,21.89-8.87,6.56-6.87,14.18-12.73,21.33-19,.37-.39.74-.77,1.1-1.16-.77-.54-1.27-.23-1.62.52Zm87.25,224.19h0c0,18.81.07,37.62-.07,56.43,0,2.8.59,3.84,3.51,3.75a68.39,68.39,0,0,0,14.11-1.71c18.33-4.45,36-11.15,54.23-15.9a20.56,20.56,0,0,0,6.93-3.48q32.54-23.73,65.13-47.41c2.09-1.51,2.53-3,1.91-5.46-4.63-18.58-8.81-37.26-13.81-55.75-2.06-7.7-2.33-16-7-23-6.36-9.39-12.87-18.67-19.11-28.14-1.92-2.92-2.91-3.16-5-.1-8.59,12.54-17.69,24.75-26,37.45-5,7.6-10.6,12.27-20.31,13.44-16.79,2-33.35,5.92-50,8.84-3.44.6-4.56,2.08-4.53,5.52.08,18.55,0,37,0,55.56Zm-5.07-.34c0-17.89-.24-35.79.15-53.67.12-5.1-1.77-6.33-6.23-7.09-18.52-3.16-37-6.74-55.46-10a11.29,11.29,0,0,1-7.77-5.09c-10.2-14.61-20.55-29.12-30.83-43.68-3-4.24-3-4.25-6,.19s-6,8.88-9.1,13.25c-4.95,7-10.86,13.31-12.95,22q-8.54,35.48-17.26,70.9c-.91,3.64,1.35,5.06,3.57,6.68,16.27,11.81,32.64,23.47,48.8,35.42,10.79,8,21.59,15.67,35.12,18.47a174.28,174.28,0,0,1,17.25,4.82c11,3.51,21.83,7.8,33.71,8.2,6.14.2,7,.07,7-6.21Zm3.19-66.54c2.62,0,5.35.5,7.83-.08,15.63-3.62,31.52-5.82,47.24-8.89,4-.79,9,0,11.88-4,10.87-15.28,21.57-30.67,32.36-46,1.37-1.94,1.94-3.93.55-6q-8.91-13.18-18-26.27a9.53,9.53,0,0,0-2.85-2.28q-22.27-14.28-44.56-28.55a8.84,8.84,0,0,0-8.63-.69c-7.54,2.88-15.22,5.38-22.77,8.23a9.32,9.32,0,0,1-7,0c-8.14-3-16.4-5.69-24.54-8.72a6,6,0,0,0-6,.65q-21.85,14.09-43.83,28a20.84,20.84,0,0,0-6.07,5.61c-5.27,7.57-10.46,15.21-15.72,22.79a6,6,0,0,0,0,7.64c10.2,14.43,20.3,28.93,30.5,43.35,2,2.8,4.48,4.93,8.16,5.53,10.88,1.78,21.7,4,32.61,5.56,9.66,1.36,19,4.56,28.84,4.16Zm198.74-225c.9-6.65-1.17-11.49-6-15.65-20.92-18-41.68-36.13-62.5-54.22a10.71,10.71,0,0,0-6.73-2.52c-15.08-.9-30.15-2-45.22-2.87-6.88-.39-13.73-2.17-20.68-.54-16.84,4-33.65,8.11-50.57,11.75-4.35.94-5.27,2.82-5.24,6.85.18,21.13.11,42.27.11,63.4,0,24.22.05,48.44-.09,72.66,0,3.86,1.25,4.64,4.65,3.48a69.05,69.05,0,0,1,8-2.19c1.58-.34,2.43-1,2.58-2.67.81-8.85,4-17.26,5-26.06,1.26-11,6.16-19.37,15.25-26s17.44-14.56,26.1-21.91c-4.81.12-9.29.52-13.52-2.1-7.31-4.53-14.79-8.79-22.13-13.26-4.87-3-5-4-1-7.87,7.51-7.32,15.2-14.45,22.64-21.84a21.72,21.72,0,0,1,14.87-6.33c9.8-.64,19.57-1.74,29.36-2.6,8.35-.73,16.42-1.46,24.61,2.59a340.24,340.24,0,0,0,36.72,15.27c7.74,2.75,14.69,6.5,20.7,12.38C642.55,434.13,650.49,440.44,658.41,447.32Zm-398.8.3c6-5.26,11.77-10.29,17.49-15.4,7.9-7,15.68-14,26.09-17.59,11.06-3.82,21.82-8.56,32.55-13.25,8.82-3.86,17.49-6.53,27.48-4.92,11.19,1.8,22.61,2.11,33.91,3.21,3.2.31,6.47.74,9,3.16l27,26c1.94,1.87,2.18,4-.37,5.26-12.06,6.16-21.84,17.37-37.43,16.72,11.24,9.42,22.16,18.67,33.16,27.78,2.71,2.24,5.27,4.82,5.72,8.12,1.35,10,4.7,19.6,5.76,29.58.79,7.41,2.73,12.54,11.43,13.22,4.89.38,5.13,1,5.12-4.19V388.38c0-2,.88-4.1-2.57-4.81-11.66-2.42-23.18-5.49-34.85-7.88-9-1.84-17.7-5.71-27.14-4.66-16.08,1.79-32.2,3-48.37,3.44a32.85,32.85,0,0,0-22.12,9c-17.34,16.21-35.62,31.34-53.61,46.8-5.32,4.53-9.45,9.32-8.25,17.32Zm320.2-79.48c.3-1.22-.81-1.81-1.5-2.54-21-22.51-40.91-46.1-62-68.58q-9.82-10.42-19.55-20.87c-10.61-11.38-21-23-31.48-34.47-.88-1-1.62-2.82-3.11-2.31s-.74,2.44-.75,3.7c-.07,12.65-.14,25.29,0,37.94.17,17.41,0,34.82.24,52.23.17,13.53,0,27.12-.36,40.67-.11,3.62,1,4.3,4.24,3.41,4.6-1.24,9.27-2.22,13.94-3.2,19.93-4.22,39.36-11.22,60.43-8.11C553,368,566.43,368.31,579.81,368.14ZM456.67,239c-2.34.45-3.14,1.89-4.13,3q-27.75,30.4-55.42,60.85-19.94,21.87-39.94,43.68l-18.13,19.76c-.52.56-1.11,1.11-.78,2a1.14,1.14,0,0,0,1.48.65l0,0c5-1.76,10.1-.63,15.13-1,14.41-1,28.79-2.64,43.26-2.62a19.14,19.14,0,0,1,4.52.54c16.65,4,33.36,7.82,50,11.81,3.11.75,4,.13,4-3.23-.12-31.78-.07-63.56-.07-95.34ZM564.33,401.24c-13,1-24.86,2.4-36.78,3.25-3.64.26-8-.9-11.07,1.74-8.08,7.06-15.92,14.4-23.63,21.86-1.89,1.83-1.55,4,1.33,5.46a161.31,161.31,0,0,1,14.6,8.4,15.62,15.62,0,0,0,10.4,2.73c14-1.22,28.08-2.42,42.11-3.74,3.48-.32,6.91-1,10.31.47,10.44,4.59,21,9,31.32,13.72A114.43,114.43,0,0,0,642.2,465c5.86.45,10.38-1,14.11-5.71,2.69-3.36,2.86-5.33-.49-8-7.27-5.85-14.27-12-21.14-18.3-4.7-4.31-9.45-8.59-15.63-11-11.92-4.67-23.63-9.87-35.56-14.37C576.86,405.16,571,400.21,564.33,401.24ZM399.49,444.73c3.74.65,6.92-.69,10-2.6,4.78-3,9.49-6.07,14.5-8.56,3.65-1.82,3.78-3.31,1-5.94q-10.59-9.94-21-20.08a8.52,8.52,0,0,0-5.33-2.31c-4.72-.47-9.48-.62-14.21-1-7.78-.65-15.61-1.08-23.32-2.22-5.93-.88-11.56-.65-17.05,1.61-9.27,3.8-18.54,7.64-27.73,11.64-8.36,3.64-17.72,5.34-24.94,11.19-10.56,8.56-20.67,17.66-30.91,26.59a3,3,0,0,0-.32,4.21c4.78,4.38,9.24,9.88,17,7.55,1.82-.55,3.67-.42,5.45-.8,6.1-1.3,12.46-.33,18.45-3,12.74-5.75,25.75-10.91,38.53-16.56,6.49-2.86,13.1-4.35,20.11-3.31C372.92,443,386.28,443.3,399.49,444.73Zm204,161c-13.12-9.74-25.5-19.36-38.34-28.34-13.6-9.51-24.72-20.84-32.38-35.84-6.06-11.86-13.67-22.92-20.4-34.45-1.77-3-3.07-3.06-5.41-.68-5.77,5.76-11.87,11.22-17.47,17.17a37.31,37.31,0,0,1-20.28,11.65c-7.72,1.52-7.66,1.82-7.64,9.86a11.43,11.43,0,0,1,0,1.85c-.59,3.82,1.26,4.25,4.3,3.17,6-2.16,12.27-3.93,18.12-6.54,5-2.24,9-1.27,13.27,1.5,11.17,7.28,22.28,14.67,33.7,21.53a68.12,68.12,0,0,1,24,23.62c5.61,9.31,12.19,18.06,18.45,27,1.12,1.6,2.09,4.08,5,2.45,8.08-4.6,16.25-9.09,25.08-14Zm-147-54.48v-5.72c0-7.94,1.27-8.13-8-10.24a33.71,33.71,0,0,1-18.29-10.48c-5.87-6.52-12.64-12.2-18.78-18.49-2.62-2.7-3.76-2.35-5.59.8-9.19,15.78-18.61,31.43-27.92,47.14A46.85,46.85,0,0,1,365,568.46c-15.89,11.62-31.57,23.51-47.48,35.13-2.8,2-1.95,2.74.3,4,6.61,3.56,13.34,6.94,19.72,10.87,3.63,2.23,5.62,1.51,7.82-1.79,8-12,16.16-23.88,24.3-35.78a25.7,25.7,0,0,1,7.31-7.56c15.69-9.87,31.39-19.74,47-29.76,2.64-1.7,4.9-1.73,7.74-.7C439.71,545.69,447.85,548.33,456.49,551.25Zm-176.4-81c9.79,4.63,19.44,8.87,28.76,13.74,4.73,2.47,8.41,2.86,12.36-1.18,2.66-2.72,5.89-4.9,8.89-7.27,15.79-12.47,9.15-11.1,28.31-9.36,6.74.61,13.49.1,20,4.87,19.29,14,36.49,30.23,53.3,47,.65.65.94,2.13,2.64,1.38-1.94-9.36-4-18.76-5.79-28.19a14.6,14.6,0,0,0-5.18-8.9c-9.65-8.11-19-16.54-28.79-24.53-4.38-3.6-8-8.52-14.57-8.89-8.43-.46-16.84-1.47-25.24-2.34a18.45,18.45,0,0,0-10.24,1.69,158.16,158.16,0,0,1-15.05,6.42c-11.65,4.17-22.35,10.74-34.51,13.64-4.85,1.15-9.94-.58-14.9,1.94Zm27.13,245c2.78-11.17,5.24-21.5,7.93-31.77,5-19.15,7.19-39.45,21.87-54.78,2.07-2.17.53-3.7-1.67-4.89-7.82-4.19-15.58-8.49-23.36-12.74a24.09,24.09,0,0,0-10.84-3.25,192,192,0,0,1-21-2c-2.49-.33-4.89-1.74-8-.31,5.76,9.28,11.45,18.49,17.18,27.68a46.85,46.85,0,0,1,7.38,20.09c.92,8.47,2.63,16.86,4.08,25.28,2.07,12,4.2,24,6.42,36.68ZM646.15,605.68c-7.91-.18-14.92,1.34-22,2-7.94.73-15.71,1.33-22.7,6-5.06,3.38-10.69,5.91-16.09,8.79-6,3.22-5.89,3.12-2,8.78s8.76,11.25,11.15,17.85c2.54,7,3.74,14.54,5.56,21.83q5.31,21.38,10.65,42.73a8.08,8.08,0,0,0,.79-2.81c3.78-17.39,6.6-35,9.24-52.55,1.3-8.74,2.61-17.41,8.18-25.07C635.18,624.59,640.31,615.14,646.15,605.68Zm-353.34,60c-2.21,1.11-2.28,2.67-2.45,3.93-1.18,8.63-2.23,17.28-3.28,25.94-1.5,12.24-2.42,24.54-4.45,36.73-.89,5.32-1.83,10.94,1.88,16q16.5,22.5,32.93,45c1.09,1.49,2.09,3.18,4.53,3.82-1.1-5.85-4-10.48-6.82-14.86-9-13.81-12-28.85-11-45,.44-7.53-1.28-14.89-2.67-22.29-3.09-16.31-5.78-32.68-8.67-49.26ZM562.72,509v-.08c3.54,0,7.08-.06,10.61,0a3.45,3.45,0,0,0,3.61-2.15c4.81-9.85,9-19.62-.51-29.26-1-1-1.47-2.63-2.16-4-1-2-2.17-2.58-4.68-2.11a58.69,58.69,0,0,1-13.68,1c-6-.31-8.92,2.67-12.81,7.1-7,8-5.4,14.49-.79,22.27,3.18,5.35,5.83,7.4,12.12,7.2C557.19,508.91,560,509,562.72,509Zm-203.89-.3c10.47,3.8,16.06-3.15,20.36-13.42,2.86-6.85-5.44-22.39-12.94-22.71h-.92c-4.27-.13-8.53.21-12.8-.84-4.78-1.17-8.63,0-10.52,5.31a22.54,22.54,0,0,1-3.83,6.74c-3.41,4.08-3.13,7.93-1.08,12.64,5.72,13.11,5.53,13.19,21.73,12.28Zm27.83-23.45c4.26,7.75-3.66,11.18-3.6,17.39,4.65-2.71,8.94-5.27,13.29-7.71,1.46-.81,1.36-1.35.14-2.24-2.9-2.15-5.76-4.35-9.83-7.44Zm143.49,1.36c-3.27,2.34-5.84,4.2-8.43,6-.8.57-1.79,1.43-.57,2,4.77,2.28,8.94,5.79,14.46,7.71C534.18,496.59,529,493.17,530.15,486.59Zm56.62,13.67c3-2.6,6-5.17,9-7.8.74-.65,2.07-1.46.63-2.5-2.67-1.92-4.63-5-9-6,3.53,5.91.94,10.72-.63,16.25Zm1.52-16.87a5.34,5.34,0,0,0-1.26-1.06c-.56-.24-.65.36-.52.69a2.42,2.42,0,0,0,.79.92c.51.35.7-.12,1-.6ZM324.93,802.87l.33-.32a2.73,2.73,0,0,0-.6-.28c-.07,0-.2.18-.29.29Zm3.46-52.36c0,.1-.17.23-.14.29a1.07,1.07,0,0,0,.3.3l.16-.58Z" transform="translate(0.01 -0.02)"/><path class="cls-2" d="M345.66,828.79Q329,796.48,312.42,764.14a10.19,10.19,0,0,1-1.14-3.92c-.39-6.67-.64-13.36-1-21.46l27,31.9c4,4.7,8.05,9.32,11.86,14.15,5,6.42,12.43,8.86,19.56,11.49,13,4.81,26,9.75,38.44,16,5.8,2.9,12.14,1.11,18.08,2.7,10.36,2.78,21.14,3.11,31.65,5.15,5.53,1.07,10.84-1.3,16.25-2.17,9.62-1.53,19.31-2.62,29-3.82,4.89-.61,9.76-1.48,14.14-3.7,12.67-6.42,26-11.21,39.15-16.46,6.66-2.66,11.82-7,16.35-12.34,11.69-13.87,23.49-27.65,36.2-42.59-.82,11.81.45,22.07-5.32,32.21-10.83,19-20.28,38.85-30.31,58.33-5.83,6.21-12.6,11.38-18.07,18.08-9.65,11.81-21,21.31-36.64,25.1-12.36,3-24.21,8-36.58,11.18a18.51,18.51,0,0,1-4.51.5c-8.79,0-17.59-.35-26.35.1-9.18.47-17.72-1.41-26.26-4.53-9.43-3.45-19.15-6.29-28.72-9.45a48.19,48.19,0,0,1-19.84-12.41c-4.91-5.08-9.85-10.11-14.62-15.33C356.11,837.82,350.72,833.46,345.66,828.79Z" transform="translate(0.01 -0.02)"/><path class="cls-3" d="M42.7,536.82c-.68-3.88-.36-6.47.87-8.71,8.69-16,13.55-33.49,21-50,6.61-14.76,12-30,18-45.1,1.19-3,3.8-4.8,6.06-6.82,14.43-12.94,28.74-26,42.22-40,7.46-7.71,16.13-14,23.83-21.45,1.18-1.13,3.37-1.23,5.11-1.78,14.77-4.62,30.19-6.41,45.14-10.24,4.84-1.23,9.64-2.62,14.4-4.09,1.23-.39,2.48-.91,3.47-.1,1.15,1,.28,2.39,0,3.46a239.82,239.82,0,0,1-11.17,29.33,3,3,0,0,1-1.57,1.52c-18,5.47-34.54,14.61-51.91,21.66-8,3.23-13,10.35-17.87,17.18-5.69,7.91-12.41,14.91-18.64,22.22q-16,18.94-32.09,37.85C80.4,492.48,71.09,503.08,62,513.83c-4.85,5.71-9.42,11.66-14.17,17.45C46.4,533,44.82,534.53,42.7,536.82Z" transform="translate(0.01 -0.02)"/><path class="cls-3" d="M696.84,348.81c14.27,3.21,28.1,6.4,42,9.41,5.69,1.24,11.3,2.73,16.91,4.27a33.22,33.22,0,0,1,15,9.23C784.92,386,800.34,399,814.49,413.38c4.44,4.5,10.69,6.92,14.78,12.12s8.29,10.13,9.69,16.89c.54,2.6,1.71,5.29,4.27,6.84a3.56,3.56,0,0,1,1.52,3.19c.53,8.19,3.82,15.41,7.56,22.57,5.3,10.14,8.51,21.16,12.86,31.71,3.52,8.54,6.58,17.27,10.49,25.65.5,1.06,1.54,2.41,0,3.18-1.36.69-2-.79-2.76-1.73-9.58-11.36-19.48-22.45-28.76-34-8.52-10.63-17.65-20.75-26.42-31.16-8.48-10.08-17.12-20.08-25.76-30.06-7.5-8.66-14.7-17.6-22-26.44-3-3.65-6.22-6.89-11-8.38-9.72-3-18.73-7.87-28.09-11.81-6.15-2.58-11.93-6-18.61-7.34a6.57,6.57,0,0,1-5.15-4.15c-3.14-9.64-7.46-18.88-10-28.73C696.83,350.71,696.33,349.59,696.84,348.81Z" transform="translate(0.01 -0.02)"/><path class="cls-4" d="M459.38,175.39c-7.71,0-15.42-.18-23.12.06-7,.22-13.65-1.38-20.36-3.14-3.51-.91-3.5-2.67-2.51-5.17,2.6-6.54,5.4-13,7.81-19.63,10.58-29.1,21.43-58.11,32.16-87.15a44.29,44.29,0,0,0,2.29-6.93c.42-2.28.57-4,3.64-4.17,2.89-.12,3.8,1.46,4.41,3.64,3.36,12.1,8,23.77,12.48,35.47,8.35,21.78,16.23,43.73,24.25,65.64a109.05,109.05,0,0,0,5.22,12c2.13,4.16.42,5.56-3.63,6.61a76.91,76.91,0,0,1-22.28,2.78C473,175.21,466.17,175.39,459.38,175.39Z" transform="translate(0.01 -0.02)"/><path class="cls-3" d="M493.87,229.37c-20.75,1.29-41.53,1.14-62.29.78-6.7-.11-13.42-.7-20.15-.85-2.7-.06-4.81-.92-5.6-4.47-3.59-16.24-7.68-32.24-11.34-48.46-.86-3.78,2.62-2.29,3.91-2.11a93.83,93.83,0,0,1,17.65,4.18,56.93,56.93,0,0,0,19.83,3.15c11.4-.24,22.83-.53,34.2,0a123.28,123.28,0,0,0,43.81-6,40.76,40.76,0,0,1,7-1.58c5.88-.78,6.13-.84,4.4,4.53-5,15.41-7.79,31.35-11.69,47-.77,3.09-2,4-5,3.85C503.74,229.23,498.8,229.37,493.87,229.37Z" transform="translate(0.01 -0.02)"/><path class="cls-3" d="M701.59,382.76l-55.28-6.46c-15.72-1.81-31.44-3.6-47.18-5.28-6.3-.68-6.86-1.32-4-6.74q18.18-33.79,36.51-67.5c.6-1.09.8-2.86,2.79-2.48,13.1,8.32,26.28,16.52,39.25,25a26.45,26.45,0,0,1,10.5,14c1.66,4.87,3.25,9.64,6,14.18,2.13,3.54,1.59,8.51,3.14,12.66C696.16,367.67,698.85,375.22,701.59,382.76Z" transform="translate(0.01 -0.02)"/><path class="cls-3" d="M284.49,294.29c1.49.54,1.84,2,2.48,3.18q18.67,34.32,37.33,68.65c1.3,2.39,1.95,3.65-1.73,4.09-17.7,2.13-35.37,4.53-53.06,6.73-16.77,2.08-33.65,3.28-50.35,6a6.58,6.58,0,0,1-1.82-.22c5.23-9.16,8.39-19.15,10.53-29.35,1.62-7.78,5.91-14.5,7.45-22.26.88-4.46,4-8.11,7.49-10.63,5.56-4,11.79-7.07,17.38-10.94,6.67-4.61,14.94-6.73,20.38-13.13A7.64,7.64,0,0,1,284.49,294.29Z" transform="translate(0.01 -0.02)"/><path class="cls-3" d="M547.49,238c3.75,4.93,3.92,11.11,5.5,16.73,9.42,33.52,18.47,67.15,27.65,100.74.27,1,.82,2,.22,3.18-1.94.12-2.88-1.36-4-2.55-30.24-32.89-60.56-65.71-90.63-98.75-6.07-6.68-12.64-13-17.42-20.82,13.93-1.23,27.94-1.94,41.85-1,9.06.63,18.08.54,27.11.58A34.68,34.68,0,0,1,547.49,238Z" transform="translate(0.01 -0.02)"/><path class="cls-3" d="M712.49,414.14c-2.25,7.54-6.37,14.24-9.78,21.23-10,20.6-20.41,41-30.65,61.5-.25.49-.53,1-1.46,2.64-1.24-11.63-2.34-21.92-3.41-32.21-1-9.79-2.07-19.58-3-29.37-.28-2.92-2.09-4.71-4.07-6.44q-19-16.51-37.94-33-11.49-10-22.88-20.14a14.44,14.44,0,0,1-1.54-2.25l106.85,13.18c-.41,2.8.44,5.33,1.45,7.9C708.3,402.79,710.37,408.47,712.49,414.14Z" transform="translate(0.01 -0.02)"/><path class="cls-3" d="M449.8,236.42c-3.66,6.32-9.26,11-14,16.34-17.77,19.88-36,39.3-53.59,59.35-13.51,15.41-27.74,30.2-41.67,45.24-.81.88-1.56,1.94-3.2,2-.85-2,.29-3.84.77-5.61,10.06-36.68,20.21-73.34,30.19-110a21.91,21.91,0,0,1,2.32-4.86,59.19,59.19,0,0,1,24.19-2.64,15.49,15.49,0,0,0,9.13-2,13.4,13.4,0,0,0,5.64,0c1.53,1.35,3.41,1,5.21,1.13C426.42,236.16,438.11,236.28,449.8,236.42Z" transform="translate(0.01 -0.02)"/><path class="cls-3" d="M214.73,389.17,319.49,376c.24.38.47.76.7,1.14-3.74,3.45-7.41,7-11.26,10.32-15.32,13.33-30.24,27.18-46.25,39.64-8.17,6.36-9,14.21-9.84,23-1.5,15.71-3.3,31.39-5,47.31-1.79-.34-2-1.85-2.52-3q-18.9-37.71-37.77-75.45a8,8,0,0,1-1.07-3.94C210.49,406.83,212.76,398,214.73,389.17Z" transform="translate(0.01 -0.02)"/><path class="cls-3" d="M706.59,641.92l-71.12-2.25c-3-.09-3.56-.93-1.93-3.49,3.22-5,5.91-10.47,9.51-15.21a85.48,85.48,0,0,0,16.1-37.38c2.73-15.25,6.07-30.38,9.6-45.47,1.24-5.35.44-11,2.07-16.68,2.82,2.15,2.95,5.46,4.33,8,14.13,26.32,25,54.17,38.1,81,.74,1.51,1.24,3.14,1.86,4.71A71,71,0,0,1,706.59,641.92Z" transform="translate(0.01 -0.02)"/><path class="cls-3" d="M203.9,613.25C214,591.39,224,569.51,234.09,547.68c3.34-7.21,6.94-14.3,10.47-21.43.72-1.46,1.07-3.22,3.2-4.41.61,4.66,1.07,9.1,1.79,13.49q2.63,15.93,6.68,31.58c2,7.64,2.71,15.6,4.24,23.38a61.3,61.3,0,0,0,9.17,22.3c5.06,7.7,9.89,15.54,14.9,23.26,1.91,2.94,1.29,3.83-2.22,3.93-21.86.6-43.72,1.39-65.59,2.08-1.8.06-3.71.47-5.31-.86C206.55,632.36,204.7,623,203.9,613.25Z" transform="translate(0.01 -0.02)"/><path class="cls-4" d="M166.63,339c0,4.16-.24,8.34.09,12.47.22,2.71-.73,3.74-3.16,4.48-5.25,1.59-11,1.74-15.27,6.1-3.1,3.18-6.67,5.91-9.84,9-1.24,1.22-2,1.15-3.26.2a190.05,190.05,0,0,0-30.7-18.32c-2-1-2.42-2.53-2.8-4.32q-3.47-16.32-6.91-32.66a3.53,3.53,0,0,1,0-.46c-.15-2.55-3.37-4.77-1.65-7.21,1.39-2,4-3.08,6.12-4.52,7.87-5.36,15.22-11.5,23.61-16.1,1.94-1.07,3.33-1.24,5.62.33,11.38,7.78,23,15.18,34.71,22.48a5.12,5.12,0,0,1,2.86,5C166.12,323.28,166.9,331.11,166.63,339Z" transform="translate(0.01 -0.02)"/><path class="cls-4" d="M752.07,333.76c0-5.85.09-11.71,0-17.57a5.9,5.9,0,0,1,3.16-5.92c10.84-6.66,21.82-13.18,32-20.72,4.49-3.31,7.1-2.21,10.84.16,9,5.68,17.55,11.88,26.2,18,.81.57,1.72.6,1.17,2.26-4.07,12.28-6.19,25-9,37.64a7.29,7.29,0,0,1-3.85,5.47c-9.57,5.47-19.6,10.25-28.3,17.08-3.5,2.74-5.85,1.75-8.06-.9-3.31-4-6.38-8.1-11.62-9.79-3.29-1.07-6.41-2.9-9.76-3.44s-3.36-2.14-3.36-4.72c.16-5.84,0-11.7,0-17.55Z" transform="translate(0.01 -0.02)"/><path class="cls-3" d="M307.06,959.86c-2.56-2.16-2.73-4.54-3.43-6.64-4.76-14.42-9.58-28.82-14.18-43.28-2.3-7.22-4.29-14.53-7.39-21.49-1.88-4.2-1-9.42,0-12.91,5-17.17,6.5-34.89,9.15-52.38,1.56-10.28,4.11-20.42,4.89-30.81.12-1.57.45-3.55,1.7-4s2.75,1,3.82,2.07l27.46,28.71c1,1.09,1.8,2.2.9,3.66-5.57,9.1-6.57,19.73-9.8,29.61-3.07,9.39-6,19-7.41,28.7-1.81,12.3-2.17,24.81-2.94,37.25-.78,12.6-1.27,25.22-1.94,37.82A24.6,24.6,0,0,1,307.06,959.86Z" transform="translate(0.01 -0.02)"/><path class="cls-3" d="M610.82,959.41c-.25-3-.55-6-.73-9-1.29-21.65-2.27-43.33-4-64.95-.73-9.42-4.53-18.29-7-27.39-2.26-8.14-4.48-16.3-6.56-24.49-.81-3.15-2.47-5.86-3.87-8.7-.75-1.53-1.35-2.72.14-4.07,10.56-9.58,19-21.32,30.24-30.18a11.73,11.73,0,0,1,1.47-.82c2.12,6.57,3,13.2,4,19.8,2.56,16.66,4.67,33.41,7.61,50,1.16,6.59,2.55,13.17,3.86,19.73,1.27,6.35-.15,12-2.36,17.42-4.65,11.43-7.87,23.32-11.87,35-3.2,9.32-6.35,18.65-9.52,28Z" transform="translate(0.01 -0.02)"/><path class="cls-4" d="M533.27,126.9c-1,10.1-.23,21.44-3.27,32.39-2.16,7.77-2.33,7.16-9.87,8.84-5.77,1.29-7.12-.43-9.08-5.7-7.24-19.52-15.42-38.71-21.84-58.53-5.59-17.27-14.09-33.42-18.83-51-1-3.82-.05-4.16,3.06-4.3,7-.3,13.31-.76,16,8.58,2.31,8.1,10.19,11.5,17.6,14.5a20.76,20.76,0,0,0,5.2,1.72c7.72.88,12.33,5,14.28,12.53a34.83,34.83,0,0,0,3.3,7.5C535.38,103.77,533.69,114.88,533.27,126.9Z" transform="translate(0.01 -0.02)"/><path class="cls-4" d="M385.49,111c-.59-4.46.56-8.75,2.67-13,3.06-6.25,5.7-12.71,8.3-19.17.75-1.89,1.49-3.13,3.67-3.43,7.33-1,13.94-4.39,21-6.47,2.59-.77,4.17-2.91,5.33-5.3s2.13-4.7,3.44-6.92c5.09-8.65,7.52-9.62,17.41-7.89,2.33.41,2.69,1.29,2,3.27-4,11.92-8.25,23.76-13.18,35.35-3.09,7.28-5.33,14.92-8.1,22.34-6.55,17.53-13.12,35.06-19.89,52.51-.89,2.28-.14,5.89-2.82,6.65-2.29.65-5.16-1.06-7.67-.76-4.62.55-5.74-2-7-5.65a60.42,60.42,0,0,1-3.33-18C386.77,133.42,386.11,122.35,385.49,111Z" transform="translate(0.01 -0.02)"/><path class="cls-3" d="M674.49,701.23c-8,11.49-18.5,20.8-27.81,31.15-1.31,1.45-2.41,3.22-5,4-.83-5.67-1.75-11.19-2.45-16.74q-3-24.42-6-48.88c-.94-7.47-2-14.93-3-22.39-.29-2.07-.44-3.46,2.61-3.35,22.48.82,45,1.45,67.44,2.16,1.07,0,2.14.18,3.22.27-1.68,4.46-4.37,8.39-6.63,12.54Q685.65,680.59,674.49,701.23Z" transform="translate(0.01 -0.02)"/><path class="cls-3" d="M215.49,647.47l44.75-1.67c7.85-.29,15.7-.53,23.54-1,3.23-.17,4.51.82,4,4.23q-2.82,20.28-5.39,40.61c-1.74,13.7-3.36,27.43-5,41.15a17.49,17.49,0,0,1-.14,2.29c-.29,1.13.09,2.76-1.35,3.18-1.19.36-1.82-1-2.51-1.71-8.42-9.33-17.59-18-25.44-27.82a1.22,1.22,0,0,0-.48-1.66,1.43,1.43,0,0,0-.31-.12,1.91,1.91,0,0,0-1.13-2.44,2,2,0,0,0-.54-.11c-2.54-7.4-7.38-13.58-10.85-20.49-3.32-6.62-7-13-10.58-19.55C221.36,657.35,217.62,652.89,215.49,647.47Z" transform="translate(0.01 -0.02)"/><path class="cls-3" d="M628.77,290.21c.29,2-.92,3.55-1.78,5.13q-17.7,32.25-35.5,64.53c-.69,1.24-.7,3.54-2.53,3.39s-1.43-2.49-1.78-3.77q-14.61-53.12-28.93-106.29c-.78-2.89-2.67-5.65-1.56-8.89,8.8,4.55,16.37,11,24.88,16C597.66,269.68,612.8,280.59,628.77,290.21Z" transform="translate(0.01 -0.02)"/><path class="cls-3" d="M361.49,244.75c.77,5.86-2,11-3.43,16.41q-13.83,50.61-27.92,101.14a8.85,8.85,0,0,1-.43,1c-2.16-.35-2.63-2.33-3.43-3.8q-17.73-32.47-35.38-65c-.75-1.38-1.46-2.71-.82-4.34,7.31-4,14.24-8.56,21.19-13.15,9.76-6.44,19.86-12.36,29.72-18.65C347.89,254,354.63,249.29,361.49,244.75Z" transform="translate(0.01 -0.02)"/><path class="cls-4" d="M17.89,422c-.48-11.71,4.35-21.53,10.65-30.92,4.11-6.14,3.9-5.89,11.86-4.93,6.7.81,13.45,1.67,20.26,1.28,4.42-.25,7.24,1.71,9.22,5.84,4.37,9.1,9,18.1,13.9,26.91,1.43,2.54-.27,3.3-1.39,3.91-3.68,2-5.41,5-6.2,9a24.9,24.9,0,0,1-2,6c-1.68,3.48-2.42,7-8.17,7.39-8.35.62-16,5.07-23.89,8-2.7,1-4,.95-5.68-1.68-5.32-8.26-9.82-17.14-17.28-23.87C17.09,427,17.8,424.34,17.89,422Z" transform="translate(0.01 -0.02)"/><path class="cls-4" d="M900,421.53c1.66,7-4.68,10-7.62,14.51-3.32,5.15-6.88,10.18-10.16,15.38-1.73,2.74-3.29,4.35-7.26,2.95-6.24-2.2-12-6.17-18.6-6.74-8.59-.75-12.16-5.27-13.87-13.21-.91-4.22-3.76-8.08-7.35-11.05-1.33-1.11-1.39-2.1-.2-4.22,5.2-9.19,9.71-18.77,14.36-28.26a4.48,4.48,0,0,1,3.9-2.92c10.15-1.55,20.55-.48,30.58-3.08a1.55,1.55,0,0,1,1.94.7C892.66,396.74,901.11,407.27,900,421.53Z" transform="translate(0.01 -0.02)"/><path class="cls-4" d="M247.77,720.31c3.58,3.86,5.23,8.15,7.27,12.11a236.46,236.46,0,0,0,17.69,29.11c4.33,6.06,10.27,11,15.75,16.19,3.31,3.13,5,5.91,2.65,10.63-1.85,3.64-2,8-2.12,12.15-.13,3.59-1.32,5.46-5.49,5.37a247.33,247.33,0,0,0-29.93,1.64c-1.59.16-3.18.26-4.17-1.22-7-10.52-16.87-18.73-23.92-29.25-1.36-2-1.13-3.44-.28-5.4,5-11.65,9.71-23.48,15.09-35C242.78,731.42,244.57,725.82,247.77,720.31Z" transform="translate(0.01 -0.02)"/><path class="cls-4" d="M663.33,807.34c-10.91-.57-21-2.19-31.17-1.54-1.85.12-2.08-.67-2.46-2.31-1.35-5.92-1.52-12.16-4.49-17.65-.74-1.36.24-1.89.87-2.71a95.9,95.9,0,0,1,12.88-13c6.13-5.37,10.55-12.18,14.89-19,5.48-8.63,9.83-17.87,14.56-26.89.55-1,.66-2.61,2.2-2.58s1.74,1.57,2.2,2.62q8.15,19,16.19,38c1.86,4.41,5.75,9.46,4.76,13.16s-6.18,7-8.85,11C680.5,793,673.2,797.13,670,804.77,668.78,807.59,665.28,807.16,663.33,807.34Z" transform="translate(0.01 -0.02)"/><path class="cls-3" d="M727,517.78c-7.19,0-14-2.47-21-3.6-9.83-1.58-19.52-4-29.31-5.8-3.34-.63-3.85-1.63-2.29-4.75,12.87-25.65,25.57-51.37,38.32-77.08.54-1.09.89-2.31,2.28-2.66,5,11.37,8.48,23.35,13.21,34.81,5.17,12.53,3,25,1.41,37.55C728.69,503.42,727.85,510.59,727,517.78Z" transform="translate(0.01 -0.02)"/><path class="cls-3" d="M204,424.43c3.77,7,7.7,14,11.27,21.11,9.24,18.52,18.35,37.1,27.47,55.68,2.84,5.8,2.76,6.08-3.51,7.46-14.62,3.2-29.26,6.27-43.9,9.38a3.26,3.26,0,0,1-3-.64c-1.37-14.06-4-28-5.09-42.08a19.54,19.54,0,0,1,1.21-8c4.68-13.59,9.52-27.13,14.3-40.68C203,425.79,202.76,424.68,204,424.43Z" transform="translate(0.01 -0.02)"/><path class="cls-4" d="M276.06,881.81c-2.22,6.63,2.47,12.7,3.86,19.41.18.86,1.85,1.76.14,2.62-7.11,3.54-10.4,11-16.26,15.86-2.11,1.74-3.55,2.56-6.63,2-7.52-1.38-14.67-4.45-22.41-4.85-2.3-.11-3.86-1.69-4.83-3.75-5-10.48-10.91-20.44-16.6-30.53-1-1.71-1.7-3.26.77-4.52,10.08-5.13,17.69-13.61,26.85-20,3.37-2.35,5.79-3.92,9.55-.43,6.25,5.81,13.05,11,19.52,16.6a22.79,22.79,0,0,0,4.9,3.16C276.49,878.14,276.18,879.66,276.06,881.81Z" transform="translate(0.01 -0.02)"/><path class="cls-4" d="M660,922.23c-3.54.55-4.69-1.28-5.91-2.41-5.24-4.83-9-11.13-14.89-15.33-1.32-.93-1.09-2.1-.51-3.62,1.42-3.77,2.48-7.68,3.61-11.56.3-1,.77-2.25.44-3.11-2.84-7.33,1.84-10.4,7-14,6.83-4.76,13.08-10.36,19.56-15.61,1.48-1.2,2.55-1.38,4.51-.2,8.49,5.15,15.54,12.2,23.78,17.64.26.16.43.45.67.63,2.37,1.81,6.81,2,7.08,5,.24,2.59-2.15,5.49-3.58,8.15-4.51,8.33-9.16,16.59-13.68,24.93-1.58,2.91-3.69,3.85-7.14,4.32-6.46.87-12.75,3-19.11,4.68Z" transform="translate(0.01 -0.02)"/><path class="cls-4" d="M95.73,351.3c.23,1.5-.92,2.17-1.76,3-8.08,8.39-16.18,16.77-24.21,25.21a5.19,5.19,0,0,1-6,1.7c-3.32-.88-7-.39-10.55-.42-5.37,0-10.62-1-15.91-1.71-2.58-.36-2.23-1.39-1.28-2.91,9.83-15.79,18.34-32.32,27.47-48.5,1.89-3.35,6-3.8,8.71-6.13,3.36-2.82,7.49-4.71,11.13-7.23,2.92-2,4.18-1.23,4.86,2,2.11,10.15,4.34,20.28,6.53,30.42Z" transform="translate(0.01 -0.02)"/><path class="cls-4" d="M852.29,381.83c-2.93,1.21-3.72-2-5.41-3.72-7.39-7.76-14.81-15.52-22.39-23.19-1.81-1.82-2.53-3.55-2-6.06,2.45-10.71,4.88-21.43,7.15-32.18.84-4,2.27-4.59,5.61-2.11,4.63,3.46,9.59,6.46,14.31,9.8,6.73,4.76,10,12.11,13.43,19.13,4.93,10,10.76,19.5,16.18,29.22,3.7,6.63,3.54,7.12-4,7.17S860.32,381,852.29,381.83Z" transform="translate(0.01 -0.02)"/><path class="cls-3" d="M715.92,602.19c-1.59-.71-1.91-2.32-2.55-3.67-12.44-26.29-25.52-52.27-37.14-78.94-.78-1.78-1.93-3.47-2-6.19l51.2,10c.5,8-1.57,15.73-2.34,23.6-1.15,11.8-2.49,23.6-4.33,35.31C717.73,588.92,718.26,595.77,715.92,602.19Z" transform="translate(0.01 -0.02)"/><path class="cls-3" d="M193.37,523.59l50.06-10.46c1.39,1.59.07,2.83-.43,3.9q-18.88,40.76-37.95,81.43c-.52,1.11-.9,2.92-2.92,1.8-1.5-21.25-4.67-42.3-7.48-63.4C194.06,532.5,193.79,528.05,193.37,523.59Z" transform="translate(0.01 -0.02)"/><path class="cls-4" d="M132.15,282.76c4.08-6.51,10.1-5.73,16.16-5.71,23.41.08,46.8,1.59,70.22,1.09a10.72,10.72,0,0,1,2.77.08c3.85,1,4.77,4,2.08,6.84-5.58,5.83-11.78,11.09-15.69,18.37-1,1.92-2.89,2.43-5.34,2.63-9.68.78-19.39.31-29.06,1a8,8,0,0,1-5.28-.95c-11-7-22-14-32.91-21A33.39,33.39,0,0,1,132.15,282.76Z" transform="translate(0.01 -0.02)"/><path class="cls-4" d="M786.26,283c-6.75,4.16-13.68,8.42-20.6,12.72-2.57,1.59-5.47,2.9-7.56,5-7.12,7.13-15.87,6.45-24.73,5.85a79.52,79.52,0,0,0-12.91-.26c-4.65.45-8-.61-11-4.43-4.64-5.88-9.91-11.25-14.81-16.92-.85-1-3.15-1.63-1.81-3.53,1.11-1.56,2.32-3.37,4.72-3.21H699c23.88-.34,47.77-.62,71.65-1.09C776.38,277,782,276.89,786.26,283Z" transform="translate(0.01 -0.02)"/><path class="cls-4" d="M67.49,453.51c-4.91,12.61-9.71,25.25-14.85,37.77C47.83,503,43.22,514.85,37.8,526.33a15.51,15.51,0,0,0-1.42,8.46c.68,5.87-2.55,10.14-5.76,14.29-2.93,3.78-13.84,5.42-17,2.59a5,5,0,0,1-.41-6.82c5.58-7,6.75-15.59,9.24-23.66,5.83-18.91,11.26-37.94,16.74-57a3.48,3.48,0,0,1,2.46-2.83c8.36-2.94,16.68-6,25-9Z" transform="translate(0.01 -0.02)"/><path class="cls-4" d="M696.88,782.25a25.14,25.14,0,0,1,4.35,13c.89,18.37,2.34,36.71,3.28,55.08.36,6.89,1.65,13.75,1.13,21-6.11-2.26-9.72-7.77-15.08-10.8-1.56-.88-2.74-2.5-4.34-3.25-8.8-4.09-13.15-10.3-12.75-20.57a112.46,112.46,0,0,0-1.82-23.81,1.82,1.82,0,0,1,.2-1.31C680.06,801.9,688.29,792.28,696.88,782.25Z" transform="translate(0.01 -0.02)"/><path class="cls-4" d="M221.15,782.59c8.18,9.5,16.15,18.69,24,28,.69.82,1.64,1.9,1.32,3.27-2.48,10.7-1.41,21.77-3.37,32.52-.25,1.35-.11,2.73-1.46,3.67a328.84,328.84,0,0,0-27.6,21c-.29.25-.8.24-1.89.54.47-8.7.84-17.07,1.39-25.44,1-14.27,1.87-28.55,3.12-42.8.44-5-.51-10.1,1.18-15A12.53,12.53,0,0,1,221.15,782.59Z" transform="translate(0.01 -0.02)"/><path class="cls-4" d="M851.26,452.81c8.41,2.92,16.57,5.9,24.85,8.53,2,.64,2.15,2.15,2.51,3.41,4.78,16.41,8.9,33,14.34,49.2,3,8.82,4.26,18.36,9.73,26.29a13.89,13.89,0,0,1,1.4,3.8c2.11,7,1.42,7.94-5.58,8.1a20.29,20.29,0,0,0-3.65.4c-3.42.72-5.89-.34-7.57-3.48-2.47-4.6-4.88-8.88-5-14.63-.11-6-4-11.47-6.22-17.15q-9.21-23.14-18.55-46.23-2.79-6.87-5.85-13.65A7.75,7.75,0,0,1,851.26,452.81Z" transform="translate(0.01 -0.02)"/><path class="cls-4" d="M816.74,357.8c1.8-.15,2.4.86,3.12,1.61,7.73,8,15.38,16.1,23.19,24,1.64,1.67,1.5,3.08.57,4.88-4.37,8.49-8.77,17-13,25.53-1.14,2.34-2.1,2.22-4.08,1a61.71,61.71,0,0,1-12.48-10.42c-6.26-6.75-13.74-12.21-19.74-19.27-2-2.29-5.13-3.62-7.44-5.85-1.68-1.63-1.7-2.43.35-3.64,8.07-4.76,16.06-9.65,24.07-14.5C813.26,360,815.19,358.76,816.74,357.8Z" transform="translate(0.01 -0.02)"/><path class="cls-4" d="M131.81,376.49c-13.32,14.36-27.87,27.18-42.23,41.1-5.42-10.46-10.62-20.5-15.83-30.53a2.33,2.33,0,0,1,.53-2.89,98.29,98.29,0,0,1,10.21-10.4c4.86-4.15,9-9.19,13.27-14,1.53-1.7,2.76-2.19,4.95-.95C112.49,364.43,122.19,370.27,131.81,376.49Z" transform="translate(0.01 -0.02)"/><path class="cls-4" d="M476.68,42.13c-3-.39-6.43.74-9.92,1a98.24,98.24,0,0,1-16.27-.37,109.29,109.29,0,0,0-12-.69c-1,0-2.65.47-3-.51-1.46-4.14-2.72-8.37-3.82-12.62-.66-2.57,1.7-3.73,3.11-5.24,3.58-3.83,7.59-7.16,10.78-11.48C449.93,6.3,462.09,5,469,8.71c5.78,3.15,9.2,8.68,13.76,13.05s5,8.24,2.89,14C483.39,42,484,42.26,476.68,42.13Z" transform="translate(0.01 -0.02)"/><path class="cls-4" d="M640.78,812.08c7.21.58,14.42,1.29,21.64,1.65,2.51.12,3.4.73,3.56,3.36.57,9.82,1.43,19.63,2.16,29.45a5.39,5.39,0,0,1-2.43,5c-7.14,5.39-14.56,10.42-21.15,16.54-3.2,3-3.7,2.56-4.57-1.76-3.28-16.17-5.62-32.49-8.18-48.77-.86-5.5-.78-5.69,4.82-5.71h4.16Z" transform="translate(0.01 -0.02)"/><path class="cls-4" d="M271.35,812.59c4.16-.19,8.33-.23,12.47-.62,2.7-.25,2.67,1.11,2.43,3-2.12,16.84-5.22,33.53-8.19,50.24-.34,1.89.91,5.09-1.07,5.38s-3.77-2.41-5.56-4c-4.73-4.22-9.86-8-14.82-12-2-1.63-4-3.36-6.08-4.89-1.27-.93-1.06-2.09-1-3.29.84-9.51,1.78-19,2.49-28.53.23-3,1.47-4.35,4.53-4.44,4.92-.14,9.84-.55,14.77-.85Z" transform="translate(0.01 -0.02)"/><path class="cls-4" d="M172.49,332.43c0-5.23.08-10.46,0-15.69-.05-2.19.37-3.38,2.94-3.48,8.6-.35,17.24.47,25.8-.88,2.18-.34,3.39.87,4.14,2.79,3.41,8.64,6.81,17.29,10.31,25.9.85,2.09,0,2.4-1.85,2.95-12.31,3.66-24.84,6.24-37.42,8.7-3.1.61-3.8-.48-3.76-3.2.07-5.7,0-11.39,0-17.09Z" transform="translate(0.01 -0.02)"/><path class="cls-4" d="M745.49,333.33c0,5.55-.2,11.11.08,16.65.17,3.29-1.18,3.45-3.74,2.87q-18.12-4.1-36.28-8c-2.71-.58-4.34-1-2.76-4.64,3.53-8.12,6.44-16.51,9.53-24.81.7-1.86,1.81-2.48,3.8-2.44,8.93.18,17.87.28,26.8.23,2.42,0,2.71,1.06,2.67,3.08-.11,5.7,0,11.4,0,17.1Z" transform="translate(0.01 -0.02)"/><path class="cls-4" d="M902,435.21c2.23,15.43,4.32,30,6.46,44.58,1.12,7.68,2.38,15.34,3.51,23,.47,3.21-.13,6.35-.64,9.54-1.18,7.54-1.41,15.21-3.06,22.93a4.67,4.67,0,0,1-2.61-3.21c-7-23.31-14.1-46.58-21.11-69.89-.28-.91-.83-2-.08-3.07,4.85-7,9.65-14,14.52-21A26.42,26.42,0,0,1,902,435.21Z" transform="translate(0.01 -0.02)"/><path class="cls-4" d="M9.86,536C6.73,520.14,5,504.45,7.91,488.39c2.93-16.3,5.56-32.66,7.18-49.15a5.32,5.32,0,0,1,1.31-3.57c3.72,2.57,5.68,6.55,8,10.27,1.6,2.6,2.93,5.47,5,7.68,3.78,4.12,3.94,8.52,2.44,13.52Q22,499.67,12.41,532.26C11.92,533.67,11.64,535.21,9.86,536Z" transform="translate(0.01 -0.02)"/><path class="cls-4" d="M282.3,909.51c4.59,10.67,7.89,21.38,11.42,32a164.46,164.46,0,0,1,4.77,16.59c1,4.39,5.21,6.45,6.31,10.9,1.78,7.19-1.11,13.9-8.18,16.19-1.95.63-4,.36-4.19-2.06-.47-6.44-4.11-11.4-6.75-17-5.93-12.55-12.62-24.72-18.37-37.35-.48-1.06-1.63-2-.16-3.46C272.27,920.32,277.57,915.47,282.3,909.51Z" transform="translate(0.01 -0.02)"/><path class="cls-4" d="M612.2,975.81c3.08-3.49.34-9.09,4.83-12.6,2.45-1.93,2.41-5.72,3.33-8.71,4.25-13.77,9.89-27.09,13.37-41.11.66-2.68,1.81-4,4.42-1,3.83,4.4,8,8.52,12.24,12.54,1.52,1.44,1.65,2.49.73,4.23-7.08,13.3-12.83,27.3-21,40-2.41,3.72-2.88,8.17-4.07,12.35-1.31,4.62-2.88,5-6.76,2a39,39,0,0,0-4.45-3.22C613.05,979.33,612.82,977.75,612.2,975.81Z" transform="translate(0.01 -0.02)"/><path class="cls-4" d="M259,303.32l-2,1.22c-5.17,3.18-10.19,6.62-15.53,9.45-7.16,3.79-10.31,10.22-12.56,17.41-.81,2.6-1.33,5.29-2.66,7.73-.56,1-1,1.8-2.27,1.92-1.79.18-1.25-1.25-1.62-2.13q-5.35-12.71-10.86-25.33a4.85,4.85,0,0,1,.45-5.29c5.09-8.08,12.52-14.09,18.23-21.59,1-1.29,2.06-1.36,3.59-.58,8.54,4.4,16.13,10.2,23.94,15.69A8.38,8.38,0,0,1,259,303.32Z" transform="translate(0.01 -0.02)"/><path class="cls-4" d="M694.27,341.76a13.92,13.92,0,0,1-3.25-6.68c-2.53-12.27-10.59-19.88-21.16-25.49-3.62-1.93-7-4.38-10.89-6.89a196.56,196.56,0,0,1,25.69-16.85,2.1,2.1,0,0,1,2.86.52c6.38,7.33,12.75,14.67,19.22,21.92,1.24,1.39.53,2.37,0,3.7A317.11,317.11,0,0,1,694.27,341.76Z" transform="translate(0.01 -0.02)"/><path class="cls-4" d="M285.37,980.51c-6.46-2.13-11-7-16.76-9.67-1.35-.63-2.55-1.59-3.91-2.17a20.4,20.4,0,0,1-11.16-11.27c-4.4-10.25-10.75-19.48-15.79-29.41-.69-1.35-1.37-2.7-2.46-4.86,7.94,1.84,15.21,3.36,22.37,5.27,3.07.81,4,4,5.36,6.52,6.37,12,12.16,24.32,17.84,36.68C282.2,974.52,284.88,976.78,285.37,980.51Z" transform="translate(0.01 -0.02)"/><path class="cls-4" d="M633.49,980.48a9.64,9.64,0,0,1,1.81-6.59c7.39-11.32,12.17-24,18.54-35.86,3.23-6,6.58-10.61,14.14-11.28,4.75-.42,9.37-2.48,15.19-4.12-2.18,4.2-3.55,7.5-5.48,10.43A152.64,152.64,0,0,0,665,956.81a22.15,22.15,0,0,1-11.23,11.78C646.9,971.94,640.49,976.27,633.49,980.48Z" transform="translate(0.01 -0.02)"/><path class="cls-3" d="M399.56,69.43c-1.15.31-1.6-.71-1.44-2.14.11-1,.85-2.11.68-3-2.07-11.3,3.68-19,11.17-26.39a21.81,21.81,0,0,1,14.52-6.62,2.39,2.39,0,0,1,1.32.13c1.72,1,4.08,13.82,2.9,15.68-2.43,3.85-5,7.59-6.74,11.85-1.35,3.35-3.78,5.1-7.41,6C409.73,66.13,405.18,68.46,399.56,69.43Z" transform="translate(0.01 -0.02)"/><path class="cls-3" d="M520.89,65.05c0,4.8,0,4.74-5.33,3.2C506.9,65.76,499,62.52,494.21,53.9c-3.89-7-3.85-13.87-1.63-21.12.54-1.76,1.54-2.25,3.48-1.79,6.06,1.44,11.74,3.26,15.35,9,1.21,1.9,3.18,3.32,4.78,5,2.55,2.62,4.2,5.67,3.74,9.42C519.49,57.79,521.06,61,520.89,65.05Z" transform="translate(0.01 -0.02)"/><path class="cls-3" d="M615,785.49c0-4,2.76-6.67,4.84-9.63,10.66-15.16,20.56-30.91,34-43.92,1.19-1.15,2.13-2.68,4.07-2.73.25,2.7-1.66,4.48-2.78,6.59-6.66,12.56-13.57,25-24.86,34.1C624.49,774.53,621.07,781.23,615,785.49Z" transform="translate(0.01 -0.02)"/><path class="cls-3" d="M262.71,731.89c3.11.4,4.48,3.09,6.28,5.06a269.73,269.73,0,0,1,27.7,36.64c.82,1.26,2.22,2.33.78,4-13.16-10-23.08-22.62-30.71-37.11C265.31,737.67,262.93,735.26,262.71,731.89Z" transform="translate(0.01 -0.02)"/><path class="cls-5" d="M409.54,234.2a13.4,13.4,0,0,1-5.64,0C405.78,231.93,407.66,232,409.54,234.2Z" transform="translate(0.01 -0.02)"/><path class="cls-5" d="M245.49,702.44a1.89,1.89,0,0,1,1.78,2,2,2,0,0,1-.11.54C245.57,704.85,245.58,703.59,245.49,702.44Z" transform="translate(0.01 -0.02)"/><path class="cls-3" d="M614.07,786.43c-.27-.94-.34-1.68,1-1a.91.91,0,0,1-.81,1A.61.61,0,0,1,614.07,786.43Z" transform="translate(0.01 -0.02)"/><path class="cls-3" d="M613.17,787.28c0-.64-.17-1.5,1-.92C614.09,787,613.8,787.3,613.17,787.28Z" transform="translate(0.01 -0.02)"/><path class="cls-4" d="M66.56,452.38c1.16-.3,1.62-.06.88,1.13Z" transform="translate(0.01 -0.02)"/><path class="cls-2" d="M461.55,739.27c0-18.51.07-37-.06-55.51,0-3.44,1.09-4.92,4.53-5.52,16.69-2.92,33.25-6.81,50-8.84,9.71-1.17,15.32-5.84,20.31-13.44,8.34-12.7,17.44-24.91,26-37.45,2.09-3.06,3.08-2.82,5,.1,6.24,9.47,12.75,18.75,19.11,28.14,4.67,6.91,4.94,15.25,7,23,5,18.49,9.16,37.17,13.79,55.75.62,2.46.18,4-1.91,5.46q-32.55,23.63-65.09,47.4a20.56,20.56,0,0,1-6.93,3.48c-18.24,4.75-35.9,11.45-54.23,15.9A68.39,68.39,0,0,1,465,799.45c-2.92.09-3.53-1-3.51-3.75.14-18.81.07-37.62.07-56.43Z" transform="translate(0.01 -0.02)"/><path class="cls-2" d="M456.49,738.93v54.14c0,6.28-.85,6.41-7,6.21-11.88-.4-22.66-4.69-33.71-8.2a175.79,175.79,0,0,0-17.29-4.82c-13.53-2.8-24.33-10.5-35.12-18.47-16.16-12-32.53-23.61-48.8-35.42-2.22-1.62-4.48-3-3.57-6.68q8.78-35.41,17.26-70.9c2.09-8.68,8-15,12.95-22,3.1-4.37,6.08-8.82,9.1-13.25s3-4.43,6-.19c10.28,14.56,20.63,29.07,30.83,43.68a11.29,11.29,0,0,0,7.77,5.09c18.49,3.3,36.94,6.88,55.46,10,4.46.76,6.35,2,6.23,7.09C456.24,703.14,456.49,721,456.49,738.93Z" transform="translate(0.01 -0.02)"/><path class="cls-2" d="M459.67,672.39c-9.85.4-19.19-2.78-28.81-4.19-10.91-1.59-21.73-3.78-32.61-5.56-3.68-.6-6.18-2.73-8.16-5.53-10.2-14.42-20.3-28.92-30.5-43.35a6,6,0,0,1,0-7.64c5.26-7.58,10.45-15.22,15.72-22.79a20.84,20.84,0,0,1,6.07-5.61q21.94-13.94,43.83-28a6,6,0,0,1,6-.65c8.14,3,16.4,5.7,24.54,8.72a9.32,9.32,0,0,0,7,0c7.55-2.85,15.23-5.35,22.77-8.23a8.82,8.82,0,0,1,8.67.77c14.82,9.57,29.71,19,44.56,28.55a9.69,9.69,0,0,1,2.85,2.28q9.07,13.08,18,26.27c1.39,2.06.82,4-.55,6-10.79,15.32-21.49,30.71-32.36,46-2.85,4-7.84,3.21-11.88,4-15.72,3.07-31.61,5.27-47.24,8.89C465,672.89,462.29,672.39,459.67,672.39Zm41-74.2c-3.82,7.42-4.06,16.93-13.48,21.12-11.62,5.18-21.57,12.07-24,25.87a1.8,1.8,0,0,1-.09.45c-1,1.76-1.26,3.34.54,4.88,2.08,1.78,3.65.29,4.78-.93,7.12-7.66,16.46-9.47,26.22-10.61,4.48-.52,9-2,11.13-6.45,3.22-6.8,7.14-13.66,3.44-21.66a11.29,11.29,0,0,1-.49-2.22c-2.18-9.64-3.51-19.47-6.64-28.89-.75-2.28-1.57-4.69-4.61-3.64-2.78,1-2,3-1.28,5.33,1.73,5.37,3,10.87,4.52,16.75ZM407.39,620c1.51,3.57,3.28,7.47,4.81,11.46s4.25,6.21,8.77,6.87c10.74,1.56,21.75,2.76,29.48,11.9a2.22,2.22,0,0,0,.72.57c2.37,1.14,5.26-.65,4.47-3.11-3.08-9.56-5.54-19.49-16.53-23.87-9.42-3.76-16.78-9.66-19.67-20.34-1.1-4.07-1.56-7.56-.37-11.47s2.15-8,3.27-11.94c.55-2,.06-3.5-1.87-4.07s-3.12.57-3.63,2.48q-1.06,3.94-2.27,7.86C411.21,597.16,409.69,608.39,407.39,620Z" transform="translate(0.01 -0.02)"/><path class="cls-4" d="M658.41,447.32c-7.91-6.88-15.86-13.19-23.09-20.26-6-5.88-13-9.63-20.7-12.38a340.24,340.24,0,0,1-36.72-15.27c-8.19-4.05-16.26-3.32-24.61-2.59-9.79.86-19.56,2-29.36,2.6-5.81.38-10.68,2.17-14.87,6.33-7.44,7.39-15.13,14.52-22.64,21.84-4,3.91-3.89,4.91,1,7.87,7.34,4.47,14.82,8.73,22.13,13.26,4.23,2.62,8.71,2.22,13.52,2.1-8.66,7.35-17,15.22-26.1,21.91s-14,15-15.25,26c-1,8.8-4.2,17.21-5,26.06-.15,1.66-1,2.33-2.58,2.67a69.05,69.05,0,0,0-8,2.19c-3.4,1.16-4.68.38-4.65-3.48.14-24.22.09-48.44.09-72.66,0-21.13.07-42.27-.11-63.4,0-4,.89-5.91,5.24-6.85,16.92-3.64,33.73-7.77,50.57-11.75,7-1.63,13.8.15,20.68.54,15.07.86,30.14,2,45.22,2.87a10.71,10.71,0,0,1,6.73,2.52q31.2,27.22,62.48,54.23C657.24,435.83,659.31,440.67,658.41,447.32Z" transform="translate(0.01 -0.02)"/><path class="cls-4" d="M259.61,447.59c-1.2-8,2.93-12.82,8.19-17.35,18-15.46,36.27-30.59,53.61-46.8a32.85,32.85,0,0,1,22.12-9c16.17-.47,32.29-1.65,48.37-3.44,9.44-1.05,18.15,2.82,27.14,4.66,11.67,2.39,23.19,5.46,34.85,7.88,3.45.71,2.57,2.85,2.57,4.81V525.29c0,5.18-.23,4.57-5.12,4.19-8.7-.68-10.64-5.81-11.43-13.22-1.06-10-4.41-19.58-5.76-29.58-.45-3.3-3-5.88-5.72-8.12-11-9.12-21.91-18.37-33.16-27.83,15.59.65,25.37-10.56,37.43-16.72,2.55-1.3,2.31-3.39.37-5.26q-13.49-13-27-26c-2.52-2.42-5.79-2.85-9-3.16-11.3-1.1-22.72-1.41-33.91-3.21-10-1.61-18.66,1.06-27.48,4.92-10.73,4.69-21.49,9.43-32.55,13.25-10.41,3.59-18.19,10.55-26.09,17.59C271.38,437.33,265.59,442.36,259.61,447.59Z" transform="translate(0.01 -0.02)"/><path class="cls-3" d="M579.81,368.14c-13.38.17-26.77-.18-39.92-2.13-21.07-3.11-40.5,3.89-60.43,8.11-4.67,1-9.34,2-13.94,3.2-3.27.89-4.35.21-4.24-3.41.39-13.55.53-27.14.36-40.67-.22-17.41-.07-34.82-.24-52.23-.12-12.65,0-25.29,0-37.94,0-1.26-.87-3.14.75-3.7s2.23,1.35,3.11,2.31c10.51,11.47,20.87,23.09,31.48,34.47q9.75,10.44,19.56,20.87c21.1,22.48,41,46.07,62,68.58C579,366.33,580.11,366.92,579.81,368.14Z" transform="translate(0.01 -0.02)"/><path class="cls-3" d="M456.67,239v40.06c0,31.78-.05,63.56.07,95.34,0,3.36-.91,4-4,3.23-16.66-4-33.37-7.8-50-11.81a19.14,19.14,0,0,0-4.52-.54c-14.47,0-28.85,1.6-43.26,2.62-5,.35-10.17-.78-15.13,1a1.14,1.14,0,0,1-1.5-.59l0,0c-.33-.88.26-1.43.78-2l18.13-19.76q20-21.83,39.94-43.68,27.72-30.4,55.42-60.85C453.49,240.88,454.33,239.44,456.67,239Z" transform="translate(0.01 -0.02)"/><path class="cls-3" d="M564.33,401.24c6.64-1,12.53,3.92,19.11,6.37,12,4.48,23.69,9.68,35.61,14.33,6.18,2.41,10.93,6.69,15.63,11,6.87,6.31,13.87,12.45,21.14,18.3,3.35,2.69,3.18,4.66.49,8-3.73,4.67-8.25,6.16-14.11,5.71a114.43,114.43,0,0,1-39.28-9.84C592.56,450.37,582,446,571.6,441.39c-3.4-1.49-6.83-.79-10.31-.47-14,1.32-28.07,2.52-42.11,3.74a15.62,15.62,0,0,1-10.4-2.73,161.31,161.31,0,0,0-14.6-8.4c-2.88-1.49-3.22-3.63-1.33-5.46,7.71-7.46,15.55-14.8,23.63-21.86,3-2.64,7.43-1.48,11.07-1.74C539.49,403.64,551.33,402.19,564.33,401.24Z" transform="translate(0.01 -0.02)"/><path class="cls-3" d="M399.49,444.73c-13.23-1.43-26.59-1.69-39.81-3.65-7-1-13.62.45-20.11,3.31C326.79,450,313.78,455.2,301,461c-6,2.71-12.35,1.74-18.45,3-1.78.38-3.63.25-5.45.8-7.74,2.33-12.2-3.17-17-7.55a3,3,0,0,1,.32-4.21c10.24-8.93,20.35-18,30.91-26.59,7.22-5.85,16.58-7.55,24.94-11.19,9.19-4,18.46-7.84,27.73-11.64,5.49-2.26,11.12-2.49,17-1.61,7.71,1.14,15.54,1.57,23.32,2.22,4.73.4,9.49.55,14.21,1a8.56,8.56,0,0,1,5.37,2.41q10.42,10.13,21,20.08c2.8,2.63,2.67,4.12-1,5.94-5,2.49-9.72,5.61-14.5,8.56C406.43,444,403.25,445.38,399.49,444.73Z" transform="translate(0.01 -0.02)"/><path class="cls-4" d="M374.82,515.72c-7.15,6.3-14.77,12.16-21.33,19-6.18,6.48-13.89,8.34-21.89,8.87-9.85.66-19.37,3-28.87,5a41.68,41.68,0,0,1-25.16-2.48,102.47,102.47,0,0,0-18.17-5.88c-2.82-.58-3.87-1.78-4.19-4.45-2-17.17-2.82-34.3.19-51.49,1.24-7.08,1.61-14.32,2.41-21.86,13.37,13.17,31,18.31,47.1,26,11.7,5.6,20.29,14.64,29.74,22.8,3.74,3.23,7.37,5,12.4,4.65,9.06-.56,18.16-.57,27.25-.82C374.49,515.3,374.64,515.51,374.82,515.72Z" transform="translate(0.01 -0.02)"/><path class="cls-4" d="M545.06,514.65c7.31,1.4,14.78.39,22,1.07,10,.94,16.61-3.32,22.7-10,10.84-11.86,25.23-18,39.36-24.63,2.91-1.36,5.85-2.68,8.74-4.08,7.81-3.8,16.19-6.74,21.75-14.88,2.38,3.73,1.87,7.36,2.26,10.64,1.22,10.4,2.07,20.83,3,31.26,1,11-1.35,21.8-2,32.7-.12,2.07-1.54,2.74-3.22,3.38-8.71,3.28-17.63,5.82-26.6,8.26-8.27,2.25-16.19-.6-24.26-1.24-10.67-.85-20.93-4.28-31.6-5.34a15.43,15.43,0,0,1-8.91-4.24c-8-7.44-16.24-14.61-24.39-21.89Z" transform="translate(0.01 -0.02)"/><path class="cls-4" d="M402.77,500.74q-16.31,27.19-32.59,54.4a21.52,21.52,0,0,1-5.52,6.16c-17.58,13.19-35.26,26.24-52.7,39.61-3.46,2.66-7.07,2.68-10.58,2-9.91-2-20-2.57-30-4-2.82-.39-3.88-1.62-4.21-4.21-1.93-15.17-7.28-29.59-10-44.59-.21-1.17-.89-2.77-.39-3.44,1.07-1.42,2.5.12,3.7.45,9,2.47,18.2,4.17,26.86,7.78,5.83,2.43,11.44,0,17-1.18,13.38-2.75,26.84-5,40.41-6.62a13.64,13.64,0,0,0,7.68-3.83q23.69-21,47.41-42a14.68,14.68,0,0,1,1.92-1.2Z" transform="translate(0.01 -0.02)"/><path class="cls-4" d="M517.32,500.49q23.22,20.47,46.46,41c4,3.55,8.37,6.21,14.05,5.67a7.26,7.26,0,0,1,3.21.21c14.23,5.49,29.91,3.37,44.24,8.43,1.91.67,4.17.15,6.25-.79,9.39-4.21,19.31-6.65,29.93-8.92-.81,4.69-1,9.22-2.42,13.3-3.94,11.13-5.3,22.83-8.07,34.21-.93,3.81-2.4,5.38-6.73,5.68-9.56.66-19,2.37-28.55,3.63-3.09.41-6,.28-8.71-1.75q-27.76-21-55.56-41.87a12.13,12.13,0,0,1-3-3.42q-16-27.06-31.92-54.18Z" transform="translate(0.01 -0.02)"/><path class="cls-4" d="M603.49,605.68c-8.8,4.89-17,9.4-25.07,14-2.91,1.63-3.88-.85-5-2.45-6.26-8.92-12.84-17.67-18.45-27a68.12,68.12,0,0,0-24-23.62c-11.42-6.86-22.53-14.25-33.7-21.53-4.25-2.77-8.28-3.74-13.27-1.5-5.85,2.61-12.07,4.38-18.12,6.54-3,1.08-4.89.65-4.3-3.17a11.43,11.43,0,0,0,0-1.85c0-8-.08-8.34,7.64-9.86,8.16-1.65,14.61-5.65,20.27-11.65s11.71-11.39,17.45-17.2c2.34-2.38,3.64-2.35,5.41.68,6.73,11.53,14.34,22.59,20.4,34.45,7.66,15,18.78,26.33,32.38,35.84C578,586.32,590.34,595.94,603.49,605.68Z" transform="translate(0.01 -0.02)"/><path class="cls-4" d="M456.49,551.25c-8.63-2.92-16.77-5.56-24.8-8.46-2.84-1-5.1-1-7.74.7q-23.4,15-47,29.76a25.7,25.7,0,0,0-7.31,7.56c-8.15,11.9-16.3,23.78-24.3,35.78-2.2,3.3-4.19,4-7.82,1.79-6.38-3.93-13.11-7.31-19.72-10.87-2.25-1.22-3.1-1.93-.3-4C333.4,591.93,349.08,580,365,568.42a47,47,0,0,0,12.94-14.2c9.31-15.71,18.73-31.36,27.92-47.14,1.83-3.15,3-3.5,5.59-.8,6.14,6.29,12.91,12,18.78,18.49a33.71,33.71,0,0,0,18.3,10.52c9.27,2.11,8,2.3,8,10.24Z" transform="translate(0.01 -0.02)"/><path class="cls-4" d="M280.08,470.27c5-2.52,10.05-.79,14.87-1.94,12.16-2.9,22.86-9.47,34.51-13.64a159.23,159.23,0,0,0,15.11-6.42,18.45,18.45,0,0,1,10.24-1.68c8.4.87,16.81,1.88,25.24,2.34,6.61.37,10.19,5.29,14.57,8.89,9.75,8,19.14,16.42,28.79,24.53a14.6,14.6,0,0,1,5.18,8.9c1.83,9.43,3.85,18.83,5.79,28.19-1.7.75-2-.73-2.64-1.38-16.81-16.75-34-33-53.3-47-6.55-4.77-13.3-4.26-20-4.87-19.16-1.74-12.52-3.11-28.31,9.36-3,2.37-6.23,4.55-8.89,7.27-3.95,4-7.63,3.65-12.36,1.18C299.49,479.14,289.87,474.9,280.08,470.27Z" transform="translate(0.01 -0.02)"/><path class="cls-4" d="M484.61,520c-.7-6.61,2.64-12.59,3-19,.7-11.72,6.92-19.6,16.17-26.32s17.5-14.57,26.1-22.05a15.76,15.76,0,0,1,10-4.05c7.25-.24,14.44-1,21.61-1.9a25.12,25.12,0,0,1,13.43,2.16c12.63,5.45,25.39,10.59,38.06,15.94a60.37,60.37,0,0,0,25,5c-1.42,2.25-3.74,2.31-5.52,3.17-8.69,4.19-17.46,8.21-26.1,12.5-2.73,1.35-4.79,1.18-7.09-.77-6.09-5.18-12.43-10.07-18.42-15.36-3.59-3.17-7.39-4.66-12.2-4.12a201.46,201.46,0,0,1-21.15,1.75c-2.82,0-4.64,2.13-6.78,3.61-20.65,14.26-38.53,31.66-56.2,49.31Z" transform="translate(0.01 -0.02)"/><path class="cls-4" d="M307.21,715.24c-2.22-12.65-4.35-24.65-6.4-36.65-1.45-8.42-3.16-16.81-4.08-25.28a46.85,46.85,0,0,0-7.38-20.09c-5.73-9.19-11.42-18.4-17.18-27.68,3.12-1.43,5.52,0,8,.31a192,192,0,0,0,21,2A24.09,24.09,0,0,1,312,611.1c7.78,4.25,15.54,8.55,23.36,12.74,2.2,1.19,3.74,2.72,1.67,4.89-14.68,15.33-16.85,35.63-21.87,54.78C312.49,693.74,310,704.07,307.21,715.24Z" transform="translate(0.01 -0.02)"/><path class="cls-4" d="M646.15,605.68c-5.84,9.46-11,18.93-17.25,27.57-5.57,7.66-6.88,16.33-8.18,25.07-2.64,17.6-5.46,35.16-9.24,52.55a8.08,8.08,0,0,1-.79,2.81L600,671c-1.82-7.29-3-14.8-5.56-21.83-2.39-6.6-7.18-12-11.15-17.85s-4-5.56,2-8.78c5.4-2.88,11-5.41,16.09-8.79,7-4.69,14.76-5.29,22.7-6C631.23,607,638.24,605.5,646.15,605.68Z" transform="translate(0.01 -0.02)"/><path class="cls-4" d="M331.1,751.81c7.85,4,14.28,10,21.44,14.92,7.32,5.07,14.61,10.21,21.58,15.74,5.48,4.36,12.38,4.23,18.4,6.81,14.87,6.35,30.66,9.79,46.2,13.94a45,45,0,0,0,22.27.65,6,6,0,0,1,1.83-.16c21.93,1.8,41.36-7.74,61.58-13.63,3.23-.94,6.37-2.33,9.66-2.9,6.93-1.2,11.58-6.12,16.89-9.91,11.88-8.46,23.61-17.14,35.44-25.69,1-.74,1.9-2,3.54-1.55.84,2-.92,2.81-1.81,3.87-7.58,9.11-15.26,18.14-22.87,27.23a21.31,21.31,0,0,1-8.44,6.15C544,792.69,531.12,798,518.65,804.15c-6.77,3.34-13.93,3.29-20.92,4.61-15.68,3-31.41,6-47.52,5-6.59-.41-12.79-3-19.45-3.42-19.45-1.2-36.44-10.59-54.57-16.26-19.93-6.23-29.95-22.12-42.41-36-1.47-1.64-3.47-3.14-3.79-5.65Z" transform="translate(0.01 -0.02)"/><path class="cls-3" d="M595,798.86c4.77-11.32,10.87-22,16.47-32.87,1.29-2.52,2.3-5.2,2.12-7.84-1.65-24.4,4.53-47.83,8.57-71.53,1.28-7.53,2-15.19,4.38-23.27,2.11,7.67,2.15,14.86,3.2,21.9,1.8,12,3.59,24.11,4.72,36.23.54,5.79,1.16,11.54,2.08,17.27,1,6.08-3.29,10-6.28,14.25-8.93,12.66-18.12,25.13-27.29,37.62-2.26,3.07-4.82,5.91-7.25,8.86Z" transform="translate(0.01 -0.02)"/><path class="cls-3" d="M292.81,665.64c2.89,16.58,5.58,32.93,8.66,49.21,1.39,7.4,3.11,14.76,2.67,22.29-1,16.2,2,31.24,11,45.05,2.85,4.38,5.72,9,6.82,14.86-2.44-.64-3.44-2.33-4.53-3.82-11-15-21.9-30-32.93-45-3.71-5-2.77-10.66-1.88-16,2-12.19,2.95-24.49,4.45-36.73,1.05-8.66,2.1-17.31,3.28-25.94A4.17,4.17,0,0,1,292.81,665.64Z" transform="translate(0.01 -0.02)"/><path class="cls-4" d="M562.72,509c-2.76,0-5.53-.07-8.29,0-6.29.2-8.94-1.85-12.12-7.2-4.61-7.78-6.22-14.29.79-22.27,3.89-4.43,6.77-7.41,12.81-7.1a58.69,58.69,0,0,0,13.68-1c2.51-.47,3.68.13,4.68,2.11.69,1.35,1.14,3,2.16,4,9.56,9.64,5.32,19.41.51,29.26a3.45,3.45,0,0,1-3.61,2.15c-3.53-.08-7.07,0-10.61,0Zm-4-8.64c7.91.2,15.6-9.85,13.62-16.7a5.08,5.08,0,0,0-1.63-2.17c-7.22-6.08-13.22-5.88-19.28,1.12-2.73,3.14-5.06,7.51-2.91,11.2s6.88,5.2,10.17,6.55Z" transform="translate(0.01 -0.02)"/><path class="cls-4" d="M358.83,508.68c-16.2.91-16,.83-21.73-12.29-2.05-4.71-2.33-8.56,1.08-12.64A22.54,22.54,0,0,0,342,477c1.89-5.27,5.74-6.48,10.52-5.31,4.27,1.05,8.53.71,12.8.84h.92c7.5.32,15.8,15.86,12.94,22.71C374.89,505.53,369.3,512.48,358.83,508.68Zm-.47-8.19c9.18-.18,14-8.56,9.61-16.08a21.25,21.25,0,0,0-4.42-5.26c-3.65-3.21-15.56-.47-17.55,4a2.74,2.74,0,0,0-.32,1.75c1.38,3.49,1.71,7.42,4.11,10.46a12.9,12.9,0,0,0,8.57,5.13Z" transform="translate(0.01 -0.02)"/><path class="cls-4" d="M386.66,485.23c4.07,3.09,6.93,5.29,9.83,7.44,1.22.89,1.32,1.43-.14,2.24-4.35,2.44-8.64,5-13.29,7.71C383,496.41,390.92,493,386.66,485.23Z" transform="translate(0.01 -0.02)"/><path class="cls-4" d="M530.15,486.59c-1.11,6.63,4,10.08,5.46,15.74-5.52-1.92-9.69-5.43-14.46-7.71-1.22-.58-.23-1.44.57-2C524.31,490.74,526.88,488.88,530.15,486.59Z" transform="translate(0.01 -0.02)"/><path class="cls-4" d="M586.77,500.21c1.57-5.53,4.16-10.34.62-16.3,4.35,1,6.31,4.08,9,6,1.44,1,.11,1.85-.63,2.5C592.77,495,589.77,497.59,586.77,500.21Z" transform="translate(0.01 -0.02)"/><path class="cls-4" d="M330.25,499.16c-12.4-10-10.45-7.42.48-16-2.91,5.17-1.44,10.15.2,15.13Z" transform="translate(0.01 -0.02)"/><path class="cls-3" d="M323.25,800.4a17,17,0,0,1-1.5-1.68,4.66,4.66,0,0,1-.41-1.41c2.11-.3,1.87,1.66,2.68,2.48Z" transform="translate(0.01 -0.02)"/><path class="cls-4" d="M543.89,515.68l-1.56-1.22a2.53,2.53,0,0,1,2.73.19Z" transform="translate(0.01 -0.02)"/><path class="cls-4" d="M588.29,483.34c-.29.48-.48,1-1,.55a2.42,2.42,0,0,1-.79-.92c-.13-.33,0-.93.52-.69A5,5,0,0,1,588.29,483.34Z" transform="translate(0.01 -0.02)"/><path class="cls-4" d="M330.93,498.34a1,1,0,0,1,.77,1.28.93.93,0,0,1-.18.39l-1.27-.85Z" transform="translate(0.01 -0.02)"/><path class="cls-4" d="M374.3,515.08c.35-.75.85-1.06,1.62-.52-.36.39-.73.77-1.1,1.16C374.64,515.51,374.49,515.3,374.3,515.08Z" transform="translate(0.01 -0.02)"/><path class="cls-4" d="M401.82,500c.2-.39.48-.84.91-.46.2.17,0,.76,0,1.17Z" transform="translate(0.01 -0.02)"/><path class="cls-3" d="M324,799.79c.24.5.62,1-.06,1.44a6.23,6.23,0,0,1-.71-.83Z" transform="translate(0.01 -0.02)"/><path class="cls-3" d="M593.08,801.65c.39-.29.67-1.12,1.28-.57s-.08.87-.51,1.16Z" transform="translate(0.01 -0.02)"/><path class="cls-3" d="M324.93,802.87l-.56-.31c.09-.11.22-.31.29-.29a2.73,2.73,0,0,1,.6.28Z" transform="translate(0.01 -0.02)"/><path class="cls-3" d="M593.85,802.24a6.88,6.88,0,0,1-.66.77c-.59-.38-.32-.88-.11-1.36Z" transform="translate(0.01 -0.02)"/><path class="cls-4" d="M328.39,750.51h.32l-.16.58a1.07,1.07,0,0,1-.3-.3S328.34,750.59,328.39,750.51Z" transform="translate(0.01 -0.02)"/><path class="cls-4" d="M330,752.47c-.11-.36-.41-1-.29-1.06.57-.47,1.05-.15,1.4.4Z" transform="translate(0.01 -0.02)"/><path class="cls-4" d="M515.87,500.39c-.24-.24-.72-.63-.69-.69.46-.7.84-.15,1.22.15C516.22,500,516,500.2,515.87,500.39Z" transform="translate(0.01 -0.02)"/><path class="cls-4" d="M484.55,519.85l-.67.34.15-.56.58.34Z" transform="translate(0.01 -0.02)"/><path class="cls-4" d="M516.4,499.85l.92.64-.87,1.15c-.19-.41-.39-.83-.58-1.25C516,500.2,516.22,500,516.4,499.85Z" transform="translate(0.01 -0.02)"/><path class="cls-3" d="M595.72,799.48c-.21.46-.31,1.29-1.05.74s0-.94.33-1.36Z" transform="translate(0.01 -0.02)"/><path class="cls-1" d="M500.71,598.19c-1.54-5.88-2.79-11.38-4.45-16.75-.7-2.28-1.5-4.36,1.28-5.33,3-1,3.86,1.36,4.61,3.64,3.13,9.42,4.46,19.25,6.64,28.89a11.29,11.29,0,0,0,.49,2.22c3.7,8-.22,14.86-3.44,21.66-2.1,4.44-6.65,5.93-11.13,6.45-9.76,1.14-19.1,3-26.22,10.61-1.13,1.22-2.7,2.71-4.78.93-1.8-1.54-1.54-3.12-.54-4.88a1.8,1.8,0,0,0,.09-.45c2.4-13.8,12.35-20.69,24-25.87C496.65,615.12,496.89,605.59,500.71,598.19Zm-27,39.4a15.75,15.75,0,0,1,6.64-2.68c4.83-.77,9.66-1.57,14.49-2.28,2.17-.32,4.43-.55,5.57-2.7,3.35-6.29,5.08-12.82,1.89-21.25-1.45,9.35-6.77,13.8-13.93,16.91-4.16,1.8-7.87,4.63-11.8,7-1.81,1.08-3.14,2.44-3.24,4.68-.44.08-.88.33-.51.76S473.49,638,473.66,637.59Z" transform="translate(0.01 -0.02)"/><path class="cls-1" d="M407.39,620c2.3-11.59,3.82-22.82,7.18-33.66q1.2-3.92,2.27-7.86c.51-1.91,1.65-3.07,3.63-2.48s2.42,2.11,1.87,4.07c-1.12,4-2.07,8-3.27,11.94s-.73,7.4.37,11.47c2.89,10.68,10.25,16.58,19.67,20.34,11,4.38,13.45,14.31,16.53,23.87.79,2.46-2.1,4.25-4.47,3.11a2.22,2.22,0,0,1-.72-.57c-7.73-9.14-18.74-10.34-29.48-11.9-4.52-.66-7.2-2.76-8.77-6.87S408.9,623.59,407.39,620Zm37.15,17.47.79.51v-1.09c-.87-2.89-3.18-4.34-5.58-5.78-9.29-5.55-20.65-8.66-24.1-21-2.53,6.54-.58,12.32,1.39,18.07.72,2.12,2,3.25,4.54,3.82C429.23,633.72,437.32,633.82,444.54,637.45Z" transform="translate(0.01 -0.02)"/><path class="cls-1" d="M558.69,500.34c-3.29-1.35-8-2.85-10.17-6.53s.18-8.06,2.91-11.2c6-7,12.09-7.22,19.25-1.14a5.08,5.08,0,0,1,1.63,2.17C574.29,490.49,566.6,500.59,558.69,500.34Zm1-6.53c4.13-.17,5.79-2.91,6.08-6,.25-2.77-2.38-4-4.87-4.47-2.15-.37-6.39,4-6.21,6.37.21,3.25,3.19,3.15,5,4.1Z" transform="translate(0.01 -0.02)"/><path class="cls-1" d="M358.36,500.49a12.9,12.9,0,0,1-8.57-5.09c-2.4-3-2.73-7-4.11-10.46a2.74,2.74,0,0,1,.32-1.75c2-4.51,13.9-7.25,17.55-4a21.25,21.25,0,0,1,4.42,5.26C372.35,491.93,367.54,500.31,358.36,500.49Zm-5.45-13.79c-.09,4.13,2.61,7.21,5.58,7,2.36-.14,4.57-.95,4.8-3.84.21-2.62-3.09-6.62-5.43-6.44-2.54.22-4.78,1.17-4.95,3.28Z" transform="translate(0.01 -0.02)"/><path class="cls-4" d="M473.28,637.22c.1-2.24,1.43-3.6,3.24-4.68,3.93-2.33,7.64-5.16,11.8-7,7.16-3.11,12.48-7.56,13.93-16.91,3.19,8.43,1.46,15-1.89,21.25-1.14,2.15-3.4,2.38-5.57,2.7-4.83.71-9.66,1.51-14.49,2.28a15.75,15.75,0,0,0-6.64,2.68Z" transform="translate(0.01 -0.02)"/><path class="cls-4" d="M473.66,637.59c-.2.38-.54.8-.89.4s.07-.68.51-.76Z" transform="translate(0.01 -0.02)"/><path class="cls-4" d="M444.54,637.45c-7.22-3.63-15.31-3.73-23-5.48-2.5-.57-3.82-1.7-4.54-3.82-2-5.75-3.92-11.53-1.39-18.07,3.45,12.35,14.81,15.46,24.1,21,2.4,1.44,4.71,2.89,5.58,5.78Z" transform="translate(0.01 -0.02)"/><path class="cls-4" d="M445.3,636.87V638l-.79-.51Z" transform="translate(0.01 -0.02)"/><path class="cls-4" d="M559.65,493.81c-1.77-1-4.75-.85-5-4.05-.18-2.37,4.06-6.74,6.21-6.37,2.49.43,5.12,1.7,4.87,4.47C565.49,490.9,563.78,493.64,559.65,493.81Z" transform="translate(0.01 -0.02)"/><path class="cls-4" d="M352.91,486.7c.17-2.14,2.41-3.06,4.95-3.25,2.34-.18,5.64,3.82,5.43,6.44-.23,2.89-2.44,3.7-4.8,3.84C355.49,493.91,352.82,490.83,352.91,486.7Z" transform="translate(0.01 -0.02)"/></svg>