<?xml version="1.0" encoding="utf-8"?>
<!-- Generator: Adobe Illustrator 25.2.1, SVG Export Plug-In . SVG Version: 6.00 Build 0)  -->
<svg version="1.1" id="Camada_1" xmlns="http://www.w3.org/2000/svg" xmlns:xlink="http://www.w3.org/1999/xlink" x="0px" y="0px"
	 viewBox="0 0 976.4 895.7" style="enable-background:new 0 0 976.4 895.7;" xml:space="preserve">
<style type="text/css">
	.st0{fill:#26456E;}
</style>
<path class="st0" d="M976.4,49.4c-8.5,24.6-26.2,32.7-51.5,32.7c-292.7-0.4-585.4-0.5-878.2-0.3c-24.6,0-40.1-10.7-45.4-31
	C-4.4,28.5,10.4,5.4,33,1.5c6-0.9,12-1.3,18-1.2C341.8,0.3,632.6,0.2,923.5,0c25.4,0,43.8,7.5,53,32.2L976.4,49.4z"/>
<path class="st0" d="M976.4,863.7c-4.1,6.7-7.3,14.1-12.4,19.8c-9.1,10.3-21.7,12.2-34.8,12.1c-69.9-0.1-139.9-0.1-209.8,0
	c-222.8,0-445.6,0-668.4,0c-5.4,0.1-10.8-0.2-16.1-0.9C14.5,892-0.5,874.3,0.1,853.7c0.7-20.6,16.6-37.5,37.2-39.3
	c4.1-0.4,8.3-0.3,12.4-0.3c291.8,0,583.5-0.1,875.3-0.3c25.3,0,43,8.1,51.5,32.7L976.4,863.7z"/>
<path class="st0" d="M976.4,455.6c-8,24.9-25.6,33.2-51,33.2c-291.7-0.4-583.4-0.6-875.1-0.3c-7.2,0-14.8-0.2-21.6-2.1
	c-18.9-5.3-30.8-24-28.4-43.1c2.3-19.4,18.1-34.3,37.6-35.5c4.4-0.3,8.9-0.3,13.3-0.3c291.4,0,582.8-0.1,874.2-0.3
	c25.4,0,43,8.3,51,33.2V455.6z"/>
</svg>
