<svg id="Camada_1" data-name="Camada 1" xmlns="http://www.w3.org/2000/svg" viewBox="0 0 976.44 895.7"><path d="M988.22,101.52c-8.51,24.57-26.21,32.74-51.52,32.7q-439.08-.65-878.16-.28c-24.59,0-40.12-10.66-45.4-31-5.77-22.25,9-45.42,31.65-49.25a108.42,108.42,0,0,1,18-1.18q436.23-.09,872.45-.33c25.36,0,43.79,7.5,53,32.21Z" transform="translate(-11.78 -52.15)"/><path d="M988.22,915.89c-4.07,6.66-7.29,14.08-12.39,19.82C966.74,946,954.09,947.87,941,947.85q-104.9-.11-209.77,0-334.2,0-668.4,0a114.44,114.44,0,0,1-16.14-.92,40.24,40.24,0,0,1-34.84-41.07A40.79,40.79,0,0,1,49,866.58c4.11-.38,8.26-.26,12.39-.27q437.66,0,875.3-.28c25.31,0,43,8.12,51.52,32.7Z" transform="translate(-11.78 -52.15)"/><path d="M988.22,507.75c-8,24.89-25.58,33.23-51,33.2q-437.58-.65-875.14-.35c-7.23,0-14.77-.15-21.64-2.09-18.91-5.33-30.75-24-28.36-43.14a40.35,40.35,0,0,1,37.62-35.5c4.43-.3,8.89-.29,13.33-.29q437.1,0,874.19-.28c25.42,0,43,8.3,51,33.2Z" transform="translate(-11.78 -52.15)"/></svg>